<svg width="1919" height="60" viewBox="0 0 1919 60" fill="none" xmlns="http://www.w3.org/2000/svg">
<path d="M655 1.57031L-93 1.57038" stroke="#108C3D" stroke-width="2" stroke-miterlimit="10"/>
<path d="M655 22.5898L-93 22.5899" stroke="#108C3D" stroke-width="2" stroke-miterlimit="10"/>
<path d="M646.48 1L646.48 13.5L637.39 13.5L637.39 7.82" stroke="#108C3D" stroke-width="2" stroke-miterlimit="10"/>
<path d="M624.33 22.5898L624.33 10.0898L633.41 10.0898L633.41 15.7698" stroke="#108C3D" stroke-width="2" stroke-miterlimit="10"/>
<path d="M618.08 1L618.08 13.5L608.99 13.5L608.99 7.82" stroke="#108C3D" stroke-width="2" stroke-miterlimit="10"/>
<path d="M595.93 22.5898L595.93 10.0898L605.02 10.0898L605.02 15.7698" stroke="#108C3D" stroke-width="2" stroke-miterlimit="10"/>
<path d="M589.68 1L589.68 13.5L580.59 13.5L580.59 7.82" stroke="#108C3D" stroke-width="2" stroke-miterlimit="10"/>
<path d="M567.531 22.5898L567.531 10.0898L576.621 10.0898L576.621 15.7698" stroke="#108C3D" stroke-width="2" stroke-miterlimit="10"/>
<path d="M561.281 1L561.281 13.5L552.201 13.5L552.201 7.82" stroke="#108C3D" stroke-width="2" stroke-miterlimit="10"/>
<path d="M539.131 22.5898L539.131 10.0898L548.221 10.0898L548.221 15.7698" stroke="#108C3D" stroke-width="2" stroke-miterlimit="10"/>
<path d="M532.891 1L532.891 13.5L523.801 13.5L523.801 7.82" stroke="#108C3D" stroke-width="2" stroke-miterlimit="10"/>
<path d="M510.74 22.5898L510.74 10.0898L519.82 10.0898L519.82 15.7698" stroke="#108C3D" stroke-width="2" stroke-miterlimit="10"/>
<path d="M504.49 1L504.49 13.5L495.4 13.5L495.4 7.82" stroke="#108C3D" stroke-width="2" stroke-miterlimit="10"/>
<path d="M482.34 22.5898L482.34 10.0898L491.42 10.0898L491.42 15.7698" stroke="#108C3D" stroke-width="2" stroke-miterlimit="10"/>
<path d="M476.09 1L476.09 13.5L467 13.5L467 7.82" stroke="#108C3D" stroke-width="2" stroke-miterlimit="10"/>
<path d="M453.941 22.5898L453.941 10.0898L463.031 10.0898L463.031 15.7698" stroke="#108C3D" stroke-width="2" stroke-miterlimit="10"/>
<path d="M447.689 1L447.689 13.5L438.609 13.5L438.609 7.82" stroke="#108C3D" stroke-width="2" stroke-miterlimit="10"/>
<path d="M425.541 22.5898L425.541 10.0898L434.631 10.0898L434.631 15.7698" stroke="#108C3D" stroke-width="2" stroke-miterlimit="10"/>
<path d="M419.289 1L419.289 13.5L410.209 13.5L410.209 7.82" stroke="#108C3D" stroke-width="2" stroke-miterlimit="10"/>
<path d="M397.14 22.5898L397.14 10.0898L406.23 10.0898L406.23 15.7698" stroke="#108C3D" stroke-width="2" stroke-miterlimit="10"/>
<path d="M390.9 1L390.9 13.5L381.81 13.5L381.81 7.82" stroke="#108C3D" stroke-width="2" stroke-miterlimit="10"/>
<path d="M368.75 22.5898L368.75 10.0898L377.83 10.0898L377.83 15.7698" stroke="#108C3D" stroke-width="2" stroke-miterlimit="10"/>
<path d="M362.5 1L362.5 13.5L353.41 13.5L353.41 7.82" stroke="#108C3D" stroke-width="2" stroke-miterlimit="10"/>
<path d="M340.349 22.5898L340.349 10.0898L349.439 10.0898L349.439 15.7698" stroke="#108C3D" stroke-width="2" stroke-miterlimit="10"/>
<path d="M334.1 1L334.1 13.5L325.01 13.5L325.01 7.82" stroke="#108C3D" stroke-width="2" stroke-miterlimit="10"/>
<path d="M311.949 22.5898L311.949 10.0898L321.039 10.0898L321.039 15.7698" stroke="#108C3D" stroke-width="2" stroke-miterlimit="10"/>
<path d="M305.699 1L305.699 13.5L296.619 13.5L296.619 7.82" stroke="#108C3D" stroke-width="2" stroke-miterlimit="10"/>
<path d="M283.551 22.5898L283.551 10.0898L292.641 10.0898L292.641 15.7698" stroke="#108C3D" stroke-width="2" stroke-miterlimit="10"/>
<path d="M277.311 1L277.311 13.5L268.221 13.5L268.221 7.82" stroke="#108C3D" stroke-width="2" stroke-miterlimit="10"/>
<path d="M255.16 22.5898L255.16 10.0898L264.24 10.0898L264.24 15.7698" stroke="#108C3D" stroke-width="2" stroke-miterlimit="10"/>
<path d="M248.91 1L248.91 13.5L239.82 13.5L239.82 7.82" stroke="#108C3D" stroke-width="2" stroke-miterlimit="10"/>
<path d="M226.76 22.5898L226.76 10.0898L235.84 10.0898L235.84 15.7698" stroke="#108C3D" stroke-width="2" stroke-miterlimit="10"/>
<path d="M220.51 1L220.51 13.5L211.42 13.5L211.42 7.82" stroke="#108C3D" stroke-width="2" stroke-miterlimit="10"/>
<path d="M198.359 22.5898L198.359 10.0898L207.449 10.0898L207.449 15.7698" stroke="#108C3D" stroke-width="2" stroke-miterlimit="10"/>
<path d="M192.109 1L192.109 13.5L183.029 13.5L183.029 7.82" stroke="#108C3D" stroke-width="2" stroke-miterlimit="10"/>
<path d="M169.961 22.5898L169.961 10.0898L179.051 10.0898L179.051 15.7698" stroke="#108C3D" stroke-width="2" stroke-miterlimit="10"/>
<path d="M163.711 1L163.711 13.5L154.631 13.5L154.631 7.82" stroke="#108C3D" stroke-width="2" stroke-miterlimit="10"/>
<path d="M141.56 22.5898L141.56 10.0898L150.65 10.0898L150.65 15.7698" stroke="#108C3D" stroke-width="2" stroke-miterlimit="10"/>
<path d="M135.32 1L135.32 13.5L126.23 13.5L126.23 7.82" stroke="#108C3D" stroke-width="2" stroke-miterlimit="10"/>
<path d="M113.17 22.5898L113.17 10.0898L122.25 10.0898L122.25 15.7698" stroke="#108C3D" stroke-width="2" stroke-miterlimit="10"/>
<path d="M106.92 1L106.92 13.5L97.8299 13.5L97.8299 7.82" stroke="#108C3D" stroke-width="2" stroke-miterlimit="10"/>
<path d="M84.7693 22.5898L84.7693 10.0898L93.8594 10.0898L93.8594 15.7698" stroke="#108C3D" stroke-width="2" stroke-miterlimit="10"/>
<path d="M78.5195 1L78.5195 13.5L69.4296 13.5L69.4296 7.82" stroke="#108C3D" stroke-width="2" stroke-miterlimit="10"/>
<path d="M56.371 22.5898L56.371 10.0898L65.4609 10.0898L65.4609 15.7698" stroke="#108C3D" stroke-width="2" stroke-miterlimit="10"/>
<path d="M50.1211 1L50.1211 13.5L41.0411 13.5L41.0411 7.82" stroke="#108C3D" stroke-width="2" stroke-miterlimit="10"/>
<path d="M27.9705 22.5898L27.9705 10.0898L37.0605 10.0898L37.0605 15.7698" stroke="#108C3D" stroke-width="2" stroke-miterlimit="10"/>
<path d="M21.7305 1L21.7305 13.5L12.6404 13.5L12.6404 7.82" stroke="#108C3D" stroke-width="2" stroke-miterlimit="10"/>
<path d="M-0.419861 22.5898L-0.419862 10.0898L8.66016 10.0898L8.66016 15.7698" stroke="#108C3D" stroke-width="2" stroke-miterlimit="10"/>
<path d="M569.373 39.3549L579.109 49.0918L588.846 39.3549L579.109 29.6181L569.373 39.3549Z" fill="#108C3D"/>
<path d="M639.54 34.5393C638.28 37.3393 638.91 40.5093 641.19 42.6193C643.47 44.7293 646.75 45.0093 649.46 43.5393C652.17 42.0693 654.02 38.8493 653.81 35.6893C653.6 32.5293 651.82 29.6893 649.24 27.9093C643.27 23.7993 635.62 26.4193 630.18 30.0693C624.41 33.9393 619.56 39.1293 613.33 42.3093C608.05 44.9993 600.02 45.9993 596.05 40.4893C595.33 39.4893 594.05 38.9993 592.91 39.6693C591.92 40.2493 591.36 41.7993 592.09 42.8093C595.22 47.1593 600.46 49.3393 605.78 49.0993C611.73 48.8293 617.13 45.8493 621.79 42.3393C626.45 38.8293 630.89 34.3993 636.31 31.8293C640.39 29.8893 647.44 29.4293 649.05 34.8893C649.66 36.9693 648.51 39.7393 646.08 39.9393C644.66 40.0593 642.86 38.2893 643.5 36.8593C644.01 35.7293 643.82 34.3993 642.68 33.7193C641.7 33.1493 640.05 33.4093 639.54 34.5393Z" fill="#108C3D"/>
<path d="M618.15 43.3314C614.89 52.2414 605.48 58.5014 596 58.0514C600.48 51.1414 608.19 46.4114 616.38 45.5514L618.15 43.3314Z" fill="#108C3D"/>
<path d="M625.91 34.6908C618.34 29.3908 608.03 28.2608 599.5 31.8208C605.84 37.4908 615.44 39.2308 623.37 36.1408L625.91 34.7008L625.91 34.6908Z" fill="#108C3D"/>
<path d="M631.359 33.09C631.359 33.09 630.109 44.99 621.339 50C621.339 50 621.339 39.98 631.359 33.09Z" fill="#108C3D"/>
<path d="M516.52 36.8506C517.08 38.1006 515.63 39.8006 514.36 39.9106C512.46 40.0906 510.89 38.1606 510.77 36.4106C510.62 34.2106 512.21 32.2205 514.08 31.2606C516.47 30.0406 519.33 30.2606 521.81 31.0605C527.37 32.8505 531.84 37.3205 536.33 40.8605C540.82 44.4005 546.13 47.9905 552.12 48.8705C558.11 49.7505 564.3 47.8205 567.92 42.8005C568.64 41.7905 568.09 40.2505 567.1 39.6605C565.95 38.9805 564.69 39.4705 563.96 40.4805C560.54 45.2305 553.77 45.1405 548.85 43.2805C542.43 40.8505 537.45 35.6705 532.04 31.6305C526.63 27.5905 519.75 24.0405 513.04 26.7406C507.07 29.1306 503.57 37.0705 508.69 42.1405C511.1 44.5205 514.96 45.3305 517.87 43.3705C520.78 41.4105 521.92 37.7605 520.47 34.5405C519.96 33.4105 518.32 33.1405 517.33 33.7205C516.17 34.4005 516 35.7205 516.51 36.8605L516.52 36.8506Z" fill="#108C3D"/>
<path d="M541.87 43.3314C545.13 52.2414 554.54 58.5014 564.02 58.0514C559.54 51.1414 551.83 46.4114 543.64 45.5514L541.87 43.3314Z" fill="#108C3D"/>
<path d="M534.11 34.6908C541.68 29.3908 551.99 28.2608 560.52 31.8208C554.18 37.4908 544.58 39.2308 536.65 36.1408L534.11 34.7008L534.11 34.6908Z" fill="#108C3D"/>
<path d="M528.669 33.09C528.669 33.09 529.919 44.99 538.689 50C538.689 50 538.689 39.98 528.669 33.09Z" fill="#108C3D"/>
<path d="M579.39 53.1306C577.661 53.1306 576.26 54.532 576.26 56.2606C576.26 57.9893 577.661 59.3906 579.39 59.3906C581.118 59.3906 582.52 57.9893 582.52 56.2606C582.52 54.532 581.118 53.1306 579.39 53.1306Z" fill="#108C3D"/>
<path d="M566.861 49.9911C566.861 48.2611 568.261 46.8611 569.991 46.8611C571.721 46.8611 573.121 48.2611 573.121 49.9911C573.121 51.7211 571.721 53.1211 569.991 53.1211C568.261 53.1211 566.861 51.7211 566.861 49.9911Z" fill="#108C3D"/>
<path d="M586.271 31.8407C586.271 30.1107 587.671 28.7107 589.401 28.7107C591.131 28.7107 592.531 30.1107 592.531 31.8407C592.531 33.5707 591.131 34.9707 589.401 34.9707C587.671 34.9707 586.271 33.5707 586.271 31.8407Z" fill="#108C3D"/>
<path d="M565.611 31.8407C565.611 30.1107 567.011 28.7107 568.741 28.7107C570.471 28.7107 571.871 30.1107 571.871 31.8407C571.871 33.5707 570.471 34.9707 568.741 34.9707C567.011 34.9707 565.611 33.5707 565.611 31.8407Z" fill="#108C3D"/>
<path d="M586.9 50.62C586.9 48.89 588.3 47.49 590.03 47.49C591.76 47.49 593.16 48.89 593.16 50.62C593.16 52.35 591.76 53.75 590.03 53.75C588.3 53.75 586.9 52.35 586.9 50.62Z" fill="#108C3D"/>
<path d="M419.724 39.3569L429.461 49.0938L439.198 39.3569L429.461 29.62L419.724 39.3569Z" fill="#108C3D"/>
<path d="M489.901 34.5393C488.641 37.3393 489.271 40.5093 491.551 42.6193C493.831 44.7293 497.111 45.0093 499.821 43.5393C502.531 42.0693 504.381 38.8493 504.171 35.6893C503.961 32.5293 502.181 29.6893 499.601 27.9093C493.631 23.7993 485.981 26.4193 480.541 30.0693C474.771 33.9393 469.921 39.1293 463.691 42.3093C458.411 44.9993 450.381 45.9993 446.411 40.4893C445.691 39.4893 444.411 38.9993 443.271 39.6693C442.281 40.2493 441.721 41.7993 442.451 42.8093C445.581 47.1593 450.821 49.3393 456.141 49.0993C462.091 48.8293 467.491 45.8493 472.151 42.3393C476.811 38.8293 481.251 34.3993 486.671 31.8293C490.751 29.8893 497.801 29.4293 499.411 34.8893C500.021 36.9693 498.871 39.7393 496.441 39.9393C495.021 40.0593 493.221 38.2893 493.861 36.8593C494.371 35.7293 494.181 34.3993 493.041 33.7193C492.061 33.1493 490.411 33.4093 489.901 34.5393Z" fill="#108C3D"/>
<path d="M468.5 43.3314C465.24 52.2414 455.83 58.5014 446.35 58.0514C450.83 51.1414 458.54 46.4114 466.73 45.5514L468.5 43.3314Z" fill="#108C3D"/>
<path d="M476.27 34.6908C468.7 29.3908 458.39 28.2608 449.86 31.8208C456.2 37.4908 465.8 39.2308 473.73 36.1408L476.27 34.7008L476.27 34.6908Z" fill="#108C3D"/>
<path d="M481.711 33.09C481.711 33.09 480.461 44.99 471.691 50C471.691 50 471.691 39.98 481.711 33.09Z" fill="#108C3D"/>
<path d="M366.881 36.8506C367.441 38.1006 365.991 39.8006 364.721 39.9106C362.821 40.0906 361.251 38.1606 361.131 36.4106C360.981 34.2106 362.571 32.2205 364.441 31.2606C366.831 30.0406 369.691 30.2606 372.171 31.0605C377.731 32.8505 382.201 37.3205 386.691 40.8605C391.181 44.4005 396.491 47.9905 402.481 48.8705C408.471 49.7505 414.661 47.8205 418.281 42.8005C419.001 41.7905 418.451 40.2505 417.461 39.6605C416.311 38.9805 415.051 39.4705 414.321 40.4805C410.901 45.2305 404.131 45.1405 399.211 43.2805C392.791 40.8505 387.811 35.6705 382.401 31.6305C376.991 27.5905 370.111 24.0405 363.401 26.7406C357.431 29.1306 353.931 37.0705 359.051 42.1405C361.461 44.5205 365.321 45.3305 368.231 43.3705C371.141 41.4105 372.281 37.7605 370.831 34.5405C370.321 33.4105 368.681 33.1405 367.691 33.7205C366.531 34.4005 366.361 35.7205 366.871 36.8605L366.881 36.8506Z" fill="#108C3D"/>
<path d="M392.231 43.3314C395.491 52.2414 404.901 58.5014 414.381 58.0514C409.901 51.1414 402.191 46.4114 394.001 45.5514L392.231 43.3314Z" fill="#108C3D"/>
<path d="M384.471 34.6908C392.041 29.3908 402.351 28.2608 410.881 31.8208C404.541 37.4908 394.941 39.2308 387.011 36.1408L384.471 34.7008L384.471 34.6908Z" fill="#108C3D"/>
<path d="M379.019 33.09C379.019 33.09 380.269 44.99 389.039 50C389.039 50 389.039 39.98 379.019 33.09Z" fill="#108C3D"/>
<path d="M429.741 53.1306C428.012 53.1306 426.611 54.532 426.611 56.2606C426.611 57.9893 428.012 59.3906 429.741 59.3906C431.47 59.3906 432.871 57.9893 432.871 56.2606C432.871 54.532 431.47 53.1306 429.741 53.1306Z" fill="#108C3D"/>
<path d="M417.22 49.9911C417.22 48.2611 418.62 46.8611 420.35 46.8611C422.08 46.8611 423.48 48.2611 423.48 49.9911C423.48 51.7211 422.08 53.1211 420.35 53.1211C418.62 53.1211 417.22 51.7211 417.22 49.9911Z" fill="#108C3D"/>
<path d="M436.631 31.8407C436.631 30.1107 438.031 28.7107 439.761 28.7107C441.491 28.7107 442.891 30.1107 442.891 31.8407C442.891 33.5707 441.491 34.9707 439.761 34.9707C438.031 34.9707 436.631 33.5707 436.631 31.8407Z" fill="#108C3D"/>
<path d="M415.97 31.8407C415.97 30.1107 417.37 28.7107 419.1 28.7107C420.83 28.7107 422.23 30.1107 422.23 31.8407C422.23 33.5707 420.83 34.9707 419.1 34.9707C417.37 34.9707 415.97 33.5707 415.97 31.8407Z" fill="#108C3D"/>
<path d="M440.38 47.49C438.651 47.49 437.25 48.8913 437.25 50.62C437.25 52.3487 438.651 53.75 440.38 53.75C442.108 53.75 443.51 52.3487 443.51 50.62C443.51 48.8913 442.108 47.49 440.38 47.49Z" fill="#108C3D"/>
<path d="M270.076 39.3491L279.812 49.0859L289.549 39.3491L279.812 29.6122L270.076 39.3491Z" fill="#108C3D"/>
<path d="M340.251 34.5393C338.991 37.3393 339.621 40.5093 341.901 42.6193C344.181 44.7293 347.461 45.0093 350.171 43.5393C352.881 42.0693 354.731 38.8493 354.521 35.6893C354.311 32.5293 352.531 29.6893 349.951 27.9093C343.981 23.7993 336.331 26.4193 330.891 30.0693C325.121 33.9393 320.271 39.1293 314.041 42.3093C308.761 44.9993 300.731 45.9993 296.761 40.4893C296.041 39.4893 294.761 38.9993 293.621 39.6693C292.631 40.2493 292.071 41.7993 292.801 42.8093C295.931 47.1593 301.171 49.3393 306.491 49.0993C312.441 48.8293 317.841 45.8493 322.501 42.3393C327.161 38.8293 331.601 34.3993 337.021 31.8293C341.101 29.8893 348.151 29.4293 349.761 34.8893C350.371 36.9693 349.221 39.7393 346.791 39.9393C345.371 40.0593 343.571 38.2893 344.211 36.8593C344.721 35.7293 344.531 34.3993 343.391 33.7193C342.411 33.1493 340.761 33.4093 340.251 34.5393Z" fill="#108C3D"/>
<path d="M318.859 43.3314C315.599 52.2414 306.189 58.5014 296.709 58.0514C301.189 51.1414 308.899 46.4114 317.089 45.5514L318.859 43.3314Z" fill="#108C3D"/>
<path d="M326.621 34.6908C319.051 29.3908 308.741 28.2608 300.211 31.8208C306.551 37.4908 316.151 39.2308 324.081 36.1408L326.621 34.7008L326.621 34.6908Z" fill="#108C3D"/>
<path d="M332.061 33.09C332.061 33.09 330.811 44.99 322.041 50C322.041 50 322.041 39.98 332.061 33.09Z" fill="#108C3D"/>
<path d="M217.231 36.8506C217.791 38.1006 216.341 39.8006 215.071 39.9106C213.171 40.0906 211.601 38.1606 211.481 36.4106C211.331 34.2106 212.921 32.2205 214.791 31.2606C217.181 30.0406 220.041 30.2606 222.521 31.0605C228.081 32.8505 232.551 37.3205 237.041 40.8605C241.531 44.4005 246.841 47.9905 252.831 48.8705C258.821 49.7505 265.011 47.8205 268.631 42.8005C269.351 41.7905 268.801 40.2505 267.811 39.6605C266.661 38.9805 265.401 39.4705 264.671 40.4805C261.251 45.2305 254.481 45.1405 249.561 43.2805C243.141 40.8505 238.161 35.6705 232.751 31.6305C227.341 27.5905 220.461 24.0405 213.751 26.7406C207.781 29.1306 204.281 37.0705 209.401 42.1405C211.811 44.5205 215.671 45.3305 218.581 43.3705C221.491 41.4105 222.631 37.7605 221.181 34.5405C220.671 33.4105 219.031 33.1405 218.041 33.7205C216.881 34.4005 216.711 35.7205 217.221 36.8605L217.231 36.8506Z" fill="#108C3D"/>
<path d="M242.58 43.3314C245.84 52.2414 255.25 58.5014 264.73 58.0514C260.25 51.1414 252.54 46.4114 244.35 45.5514L242.58 43.3314Z" fill="#108C3D"/>
<path d="M234.82 34.6908C242.39 29.3908 252.7 28.2608 261.23 31.8208C254.89 37.4908 245.29 39.2308 237.36 36.1408L234.82 34.7008L234.82 34.6908Z" fill="#108C3D"/>
<path d="M229.38 33.09C229.38 33.09 230.63 44.99 239.4 50C239.4 50 239.4 39.98 229.38 33.09Z" fill="#108C3D"/>
<path d="M276.961 56.2606C276.961 54.5306 278.361 53.1306 280.091 53.1306C281.821 53.1306 283.221 54.5306 283.221 56.2606C283.221 57.9906 281.821 59.3906 280.091 59.3906C278.361 59.3906 276.961 57.9906 276.961 56.2606Z" fill="#108C3D"/>
<path d="M267.57 49.9911C267.57 48.2611 268.97 46.8611 270.7 46.8611C272.43 46.8611 273.83 48.2611 273.83 49.9911C273.83 51.7211 272.43 53.1211 270.7 53.1211C268.97 53.1211 267.57 51.7211 267.57 49.9911Z" fill="#108C3D"/>
<path d="M286.98 31.8407C286.98 30.1107 288.38 28.7107 290.11 28.7107C291.84 28.7107 293.24 30.1107 293.24 31.8407C293.24 33.5707 291.84 34.9707 290.11 34.9707C288.38 34.9707 286.98 33.5707 286.98 31.8407Z" fill="#108C3D"/>
<path d="M266.32 31.8407C266.32 30.1107 267.72 28.7107 269.45 28.7107C271.18 28.7107 272.58 30.1107 272.58 31.8407C272.58 33.5707 271.18 34.9707 269.45 34.9707C267.72 34.9707 266.32 33.5707 266.32 31.8407Z" fill="#108C3D"/>
<path d="M287.611 50.62C287.611 48.89 289.011 47.49 290.741 47.49C292.471 47.49 293.871 48.89 293.871 50.62C293.871 52.35 292.471 53.75 290.741 53.75C289.011 53.75 287.611 52.35 287.611 50.62Z" fill="#108C3D"/>
<path d="M120.435 39.3569L130.172 49.0938L139.909 39.3569L130.172 29.62L120.435 39.3569Z" fill="#108C3D"/>
<path d="M190.601 34.5393C189.341 37.3393 189.971 40.5093 192.251 42.6193C194.531 44.7293 197.81 45.0093 200.52 43.5393C203.23 42.0693 205.08 38.8493 204.87 35.6893C204.66 32.5293 202.88 29.6893 200.3 27.9093C194.33 23.7993 186.68 26.4193 181.24 30.0693C175.47 33.9393 170.621 39.1293 164.391 42.3093C159.111 44.9993 151.081 45.9993 147.111 40.4893C146.391 39.4893 145.111 38.9993 143.971 39.6693C142.981 40.2493 142.42 41.7993 143.15 42.8093C146.28 47.1593 151.521 49.3393 156.84 49.0993C162.791 48.8293 168.191 45.8493 172.851 42.3393C177.511 38.8293 181.95 34.3993 187.37 31.8293C191.45 29.8893 198.501 29.4293 200.111 34.8893C200.721 36.9693 199.571 39.7393 197.141 39.9393C195.721 40.0593 193.921 38.2893 194.561 36.8593C195.071 35.7293 194.88 34.3993 193.74 33.7193C192.76 33.1493 191.111 33.4093 190.601 34.5393Z" fill="#108C3D"/>
<path d="M169.211 43.3314C165.951 52.2414 156.541 58.5014 147.061 58.0514C151.541 51.1414 159.251 46.4114 167.441 45.5514L169.211 43.3314Z" fill="#108C3D"/>
<path d="M176.971 34.6908C169.401 29.3908 159.091 28.2608 150.561 31.8208C156.901 37.4908 166.501 39.2308 174.431 36.1408L176.971 34.7008L176.971 34.6908Z" fill="#108C3D"/>
<path d="M182.42 33.09C182.42 33.09 181.17 44.99 172.4 50C172.4 50 172.4 39.98 182.42 33.09Z" fill="#108C3D"/>
<path d="M67.59 36.8506C68.15 38.1006 66.7001 39.8006 65.4301 39.9106C63.5301 40.0906 61.96 38.1606 61.84 36.4106C61.69 34.2106 63.28 32.2205 65.15 31.2606C67.54 30.0406 70.4 30.2606 72.88 31.0605C78.44 32.8505 82.91 37.3205 87.4 40.8605C91.89 44.4005 97.2 47.9905 103.19 48.8705C109.18 49.7505 115.37 47.8205 118.99 42.8005C119.71 41.7905 119.16 40.2505 118.17 39.6605C117.02 38.9805 115.76 39.4705 115.03 40.4805C111.61 45.2305 104.84 45.1405 99.9201 43.2805C93.5001 40.8505 88.5201 35.6705 83.1101 31.6305C77.7001 27.5905 70.8201 24.0405 64.1101 26.7406C58.1401 29.1306 54.64 37.0705 59.76 42.1405C62.17 44.5205 66.03 45.3305 68.94 43.3705C71.85 41.4105 72.9901 37.7605 71.54 34.5405C71.0301 33.4105 69.39 33.1405 68.4 33.7205C67.24 34.4005 67.07 35.7205 67.58 36.8605L67.59 36.8506Z" fill="#108C3D"/>
<path d="M92.9398 43.3314C96.1998 52.2414 105.61 58.5014 115.09 58.0514C110.61 51.1414 102.9 46.4114 94.7098 45.5514L92.9398 43.3314Z" fill="#108C3D"/>
<path d="M85.1701 34.6908C92.7401 29.3908 103.05 28.2608 111.58 31.8208C105.24 37.4908 95.6401 39.2308 87.7101 36.1408L85.1701 34.7008L85.1701 34.6908Z" fill="#108C3D"/>
<path d="M79.73 33.09C79.73 33.09 80.98 44.99 89.75 50C89.75 50 89.75 39.98 79.73 33.09Z" fill="#108C3D"/>
<path d="M127.32 56.2606C127.32 54.5306 128.72 53.1306 130.45 53.1306C132.18 53.1306 133.58 54.5306 133.58 56.2606C133.58 57.9906 132.18 59.3906 130.45 59.3906C128.72 59.3906 127.32 57.9906 127.32 56.2606Z" fill="#108C3D"/>
<path d="M117.92 49.9911C117.92 48.2611 119.32 46.8611 121.05 46.8611C122.78 46.8611 124.18 48.2611 124.18 49.9911C124.18 51.7211 122.78 53.1211 121.05 53.1211C119.32 53.1211 117.92 51.7211 117.92 49.9911Z" fill="#108C3D"/>
<path d="M137.34 31.8407C137.34 30.1107 138.74 28.7107 140.47 28.7107C142.2 28.7107 143.6 30.1107 143.6 31.8407C143.6 33.5707 142.2 34.9707 140.47 34.9707C138.74 34.9707 137.34 33.5707 137.34 31.8407Z" fill="#108C3D"/>
<path d="M116.67 31.8407C116.67 30.1107 118.07 28.7107 119.8 28.7107C121.53 28.7107 122.93 30.1107 122.93 31.8407C122.93 33.5707 121.53 34.9707 119.8 34.9707C118.07 34.9707 116.67 33.5707 116.67 31.8407Z" fill="#108C3D"/>
<path d="M137.961 50.62C137.961 48.89 139.361 47.49 141.091 47.49C142.821 47.49 144.221 48.89 144.221 50.62C144.221 52.35 142.821 53.75 141.091 53.75C139.361 53.75 137.961 52.35 137.961 50.62Z" fill="#108C3D"/>
<path d="M40.9599 34.5393C39.6999 37.3393 40.3299 40.5093 42.6099 42.6193C44.8899 44.7293 48.1698 45.0093 50.8798 43.5393C53.5898 42.0693 55.4399 38.8493 55.2299 35.6893C55.0199 32.5293 53.2399 29.6893 50.6599 27.9093C44.6899 23.7993 37.0399 26.4193 31.5999 30.0693C25.8299 33.9393 20.9799 39.1293 14.7499 42.3093C9.4699 44.9993 1.43987 45.9993 -2.53013 40.4893C-3.25013 39.4893 -4.53015 38.9993 -5.67015 39.6693C-6.66015 40.2493 -7.22015 41.7993 -6.49015 42.8093C-3.36015 47.1593 1.87985 49.3393 7.19985 49.0993C13.1498 48.8293 18.5499 45.8493 23.2099 42.3393C27.8699 38.8293 32.3099 34.3993 37.7299 31.8293C41.8099 29.8893 48.8599 29.4293 50.4699 34.8893C51.0799 36.9693 49.9299 39.7393 47.4999 39.9393C46.0799 40.0593 44.2799 38.2893 44.9199 36.8593C45.4299 35.7293 45.2399 34.3993 44.0999 33.7193C43.1199 33.1493 41.4699 33.4093 40.9599 34.5393Z" fill="#108C3D"/>
<path d="M19.5703 43.3314C16.3103 52.2414 6.90035 58.5014 -2.57965 58.0514C1.90035 51.1414 9.61035 46.4114 17.8004 45.5514L19.5703 43.3314Z" fill="#108C3D"/>
<path d="M27.3301 34.6908C19.7601 29.3908 9.4501 28.2608 0.920104 31.8208C7.26011 37.4908 16.8601 39.2308 24.7901 36.1408L27.3301 34.7008L27.3301 34.6908Z" fill="#108C3D"/>
<path d="M32.7695 33.09C32.7695 33.09 31.5196 44.99 22.7496 50C22.7496 50 22.7495 39.98 32.7695 33.09Z" fill="#108C3D"/>
<path d="M1403 1.57031L655 1.57038" stroke="#108C3D" stroke-width="2" stroke-miterlimit="10"/>
<path d="M1403 22.5898L655 22.5899" stroke="#108C3D" stroke-width="2" stroke-miterlimit="10"/>
<path d="M1394.48 1L1394.48 13.5L1385.39 13.5L1385.39 7.82" stroke="#108C3D" stroke-width="2" stroke-miterlimit="10"/>
<path d="M1372.33 22.5898L1372.33 10.0898L1381.41 10.0898L1381.41 15.7698" stroke="#108C3D" stroke-width="2" stroke-miterlimit="10"/>
<path d="M1366.08 1L1366.08 13.5L1356.99 13.5L1356.99 7.82" stroke="#108C3D" stroke-width="2" stroke-miterlimit="10"/>
<path d="M1343.93 22.5898L1343.93 10.0898L1353.02 10.0898L1353.02 15.7698" stroke="#108C3D" stroke-width="2" stroke-miterlimit="10"/>
<path d="M1337.68 1L1337.68 13.5L1328.59 13.5L1328.59 7.82" stroke="#108C3D" stroke-width="2" stroke-miterlimit="10"/>
<path d="M1315.53 22.5898L1315.53 10.0898L1324.62 10.0898L1324.62 15.7698" stroke="#108C3D" stroke-width="2" stroke-miterlimit="10"/>
<path d="M1309.28 1L1309.28 13.5L1300.2 13.5L1300.2 7.82" stroke="#108C3D" stroke-width="2" stroke-miterlimit="10"/>
<path d="M1287.13 22.5898L1287.13 10.0898L1296.22 10.0898L1296.22 15.7698" stroke="#108C3D" stroke-width="2" stroke-miterlimit="10"/>
<path d="M1280.89 1L1280.89 13.5L1271.8 13.5L1271.8 7.82" stroke="#108C3D" stroke-width="2" stroke-miterlimit="10"/>
<path d="M1258.74 22.5898L1258.74 10.0898L1267.82 10.0898L1267.82 15.7698" stroke="#108C3D" stroke-width="2" stroke-miterlimit="10"/>
<path d="M1252.49 1L1252.49 13.5L1243.4 13.5L1243.4 7.82" stroke="#108C3D" stroke-width="2" stroke-miterlimit="10"/>
<path d="M1230.34 22.5898L1230.34 10.0898L1239.42 10.0898L1239.42 15.7698" stroke="#108C3D" stroke-width="2" stroke-miterlimit="10"/>
<path d="M1224.09 1L1224.09 13.5L1215 13.5L1215 7.82" stroke="#108C3D" stroke-width="2" stroke-miterlimit="10"/>
<path d="M1201.94 22.5898L1201.94 10.0898L1211.03 10.0898L1211.03 15.7698" stroke="#108C3D" stroke-width="2" stroke-miterlimit="10"/>
<path d="M1195.69 1L1195.69 13.5L1186.61 13.5L1186.61 7.82" stroke="#108C3D" stroke-width="2" stroke-miterlimit="10"/>
<path d="M1173.54 22.5898L1173.54 10.0898L1182.63 10.0898L1182.63 15.7698" stroke="#108C3D" stroke-width="2" stroke-miterlimit="10"/>
<path d="M1167.29 1L1167.29 13.5L1158.21 13.5L1158.21 7.82" stroke="#108C3D" stroke-width="2" stroke-miterlimit="10"/>
<path d="M1145.14 22.5898L1145.14 10.0898L1154.23 10.0898L1154.23 15.7698" stroke="#108C3D" stroke-width="2" stroke-miterlimit="10"/>
<path d="M1138.9 1L1138.9 13.5L1129.81 13.5L1129.81 7.82" stroke="#108C3D" stroke-width="2" stroke-miterlimit="10"/>
<path d="M1116.75 22.5898L1116.75 10.0898L1125.83 10.0898L1125.83 15.7698" stroke="#108C3D" stroke-width="2" stroke-miterlimit="10"/>
<path d="M1110.5 1L1110.5 13.5L1101.41 13.5L1101.41 7.82" stroke="#108C3D" stroke-width="2" stroke-miterlimit="10"/>
<path d="M1088.35 22.5898L1088.35 10.0898L1097.44 10.0898L1097.44 15.7698" stroke="#108C3D" stroke-width="2" stroke-miterlimit="10"/>
<path d="M1082.1 1L1082.1 13.5L1073.01 13.5L1073.01 7.82" stroke="#108C3D" stroke-width="2" stroke-miterlimit="10"/>
<path d="M1059.95 22.5898L1059.95 10.0898L1069.04 10.0898L1069.04 15.7698" stroke="#108C3D" stroke-width="2" stroke-miterlimit="10"/>
<path d="M1053.7 1L1053.7 13.5L1044.62 13.5L1044.62 7.82" stroke="#108C3D" stroke-width="2" stroke-miterlimit="10"/>
<path d="M1031.55 22.5898L1031.55 10.0898L1040.64 10.0898L1040.64 15.7698" stroke="#108C3D" stroke-width="2" stroke-miterlimit="10"/>
<path d="M1025.31 1L1025.31 13.5L1016.22 13.5L1016.22 7.82" stroke="#108C3D" stroke-width="2" stroke-miterlimit="10"/>
<path d="M1003.16 22.5898L1003.16 10.0898L1012.24 10.0898L1012.24 15.7698" stroke="#108C3D" stroke-width="2" stroke-miterlimit="10"/>
<path d="M996.91 1L996.91 13.5L987.82 13.5L987.82 7.82" stroke="#108C3D" stroke-width="2" stroke-miterlimit="10"/>
<path d="M974.76 22.5898L974.76 10.0898L983.84 10.0898L983.84 15.7698" stroke="#108C3D" stroke-width="2" stroke-miterlimit="10"/>
<path d="M968.51 1L968.51 13.5L959.42 13.5L959.42 7.82" stroke="#108C3D" stroke-width="2" stroke-miterlimit="10"/>
<path d="M946.359 22.5898L946.359 10.0898L955.449 10.0898L955.449 15.7698" stroke="#108C3D" stroke-width="2" stroke-miterlimit="10"/>
<path d="M940.109 1L940.109 13.5L931.029 13.5L931.029 7.82" stroke="#108C3D" stroke-width="2" stroke-miterlimit="10"/>
<path d="M917.961 22.5898L917.961 10.0898L927.051 10.0898L927.051 15.7698" stroke="#108C3D" stroke-width="2" stroke-miterlimit="10"/>
<path d="M911.711 1L911.711 13.5L902.631 13.5L902.631 7.82" stroke="#108C3D" stroke-width="2" stroke-miterlimit="10"/>
<path d="M889.56 22.5898L889.56 10.0898L898.65 10.0898L898.65 15.7698" stroke="#108C3D" stroke-width="2" stroke-miterlimit="10"/>
<path d="M883.32 1L883.32 13.5L874.23 13.5L874.23 7.82" stroke="#108C3D" stroke-width="2" stroke-miterlimit="10"/>
<path d="M861.17 22.5898L861.17 10.0898L870.25 10.0898L870.25 15.7698" stroke="#108C3D" stroke-width="2" stroke-miterlimit="10"/>
<path d="M854.92 1L854.92 13.5L845.83 13.5L845.83 7.82" stroke="#108C3D" stroke-width="2" stroke-miterlimit="10"/>
<path d="M832.769 22.5898L832.769 10.0898L841.859 10.0898L841.859 15.7698" stroke="#108C3D" stroke-width="2" stroke-miterlimit="10"/>
<path d="M826.52 1L826.52 13.5L817.43 13.5L817.43 7.82" stroke="#108C3D" stroke-width="2" stroke-miterlimit="10"/>
<path d="M804.371 22.5898L804.371 10.0898L813.461 10.0898L813.461 15.7698" stroke="#108C3D" stroke-width="2" stroke-miterlimit="10"/>
<path d="M798.121 1L798.121 13.5L789.041 13.5L789.041 7.82" stroke="#108C3D" stroke-width="2" stroke-miterlimit="10"/>
<path d="M775.971 22.5898L775.971 10.0898L785.061 10.0898L785.061 15.7698" stroke="#108C3D" stroke-width="2" stroke-miterlimit="10"/>
<path d="M769.73 1L769.73 13.5L760.64 13.5L760.64 7.82" stroke="#108C3D" stroke-width="2" stroke-miterlimit="10"/>
<path d="M747.58 22.5898L747.58 10.0898L756.66 10.0898L756.66 15.7698" stroke="#108C3D" stroke-width="2" stroke-miterlimit="10"/>
<path d="M741.33 1L741.33 13.5L732.24 13.5L732.24 7.82" stroke="#108C3D" stroke-width="2" stroke-miterlimit="10"/>
<path d="M719.18 22.5898L719.18 10.0898L728.26 10.0898L728.26 15.7698" stroke="#108C3D" stroke-width="2" stroke-miterlimit="10"/>
<path d="M712.93 1L712.93 13.5L703.84 13.5L703.84 7.82" stroke="#108C3D" stroke-width="2" stroke-miterlimit="10"/>
<path d="M690.781 22.5898L690.781 10.0898L699.871 10.0898L699.871 15.7698" stroke="#108C3D" stroke-width="2" stroke-miterlimit="10"/>
<path d="M684.531 1L684.531 13.5L675.441 13.5L675.441 7.82" stroke="#108C3D" stroke-width="2" stroke-miterlimit="10"/>
<path d="M662.381 22.5898L662.381 10.0898L671.471 10.0898L671.471 15.7698" stroke="#108C3D" stroke-width="2" stroke-miterlimit="10"/>
<path d="M1317.37 39.3549L1327.11 49.0918L1336.85 39.3549L1327.11 29.6181L1317.37 39.3549Z" fill="#108C3D"/>
<path d="M1387.54 34.5393C1386.28 37.3393 1386.91 40.5093 1389.19 42.6193C1391.47 44.7293 1394.75 45.0093 1397.46 43.5393C1400.17 42.0693 1402.02 38.8493 1401.81 35.6893C1401.6 32.5293 1399.82 29.6893 1397.24 27.9093C1391.27 23.7993 1383.62 26.4193 1378.18 30.0693C1372.41 33.9393 1367.56 39.1293 1361.33 42.3093C1356.05 44.9993 1348.02 45.9993 1344.05 40.4893C1343.33 39.4893 1342.05 38.9993 1340.91 39.6693C1339.92 40.2493 1339.36 41.7993 1340.09 42.8093C1343.22 47.1593 1348.46 49.3393 1353.78 49.0993C1359.73 48.8293 1365.13 45.8493 1369.79 42.3393C1374.45 38.8293 1378.89 34.3993 1384.31 31.8293C1388.39 29.8893 1395.44 29.4293 1397.05 34.8893C1397.66 36.9693 1396.51 39.7393 1394.08 39.9393C1392.66 40.0593 1390.86 38.2893 1391.5 36.8593C1392.01 35.7293 1391.82 34.3993 1390.68 33.7193C1389.7 33.1493 1388.05 33.4093 1387.54 34.5393Z" fill="#108C3D"/>
<path d="M1366.15 43.3314C1362.89 52.2414 1353.48 58.5014 1344 58.0514C1348.48 51.1414 1356.19 46.4114 1364.38 45.5514L1366.15 43.3314Z" fill="#108C3D"/>
<path d="M1373.91 34.6908C1366.34 29.3908 1356.03 28.2608 1347.5 31.8208C1353.84 37.4908 1363.44 39.2308 1371.37 36.1408L1373.91 34.7008L1373.91 34.6908Z" fill="#108C3D"/>
<path d="M1379.36 33.09C1379.36 33.09 1378.11 44.99 1369.34 50C1369.34 50 1369.34 39.98 1379.36 33.09Z" fill="#108C3D"/>
<path d="M1264.52 36.8506C1265.08 38.1006 1263.63 39.8006 1262.36 39.9106C1260.46 40.0906 1258.89 38.1606 1258.77 36.4106C1258.62 34.2106 1260.21 32.2205 1262.08 31.2606C1264.47 30.0406 1267.33 30.2606 1269.81 31.0605C1275.37 32.8505 1279.84 37.3205 1284.33 40.8605C1288.82 44.4005 1294.13 47.9905 1300.12 48.8705C1306.11 49.7505 1312.3 47.8205 1315.92 42.8005C1316.64 41.7905 1316.09 40.2505 1315.1 39.6605C1313.95 38.9805 1312.69 39.4705 1311.96 40.4805C1308.54 45.2305 1301.77 45.1405 1296.85 43.2805C1290.43 40.8505 1285.45 35.6705 1280.04 31.6305C1274.63 27.5905 1267.75 24.0405 1261.04 26.7406C1255.07 29.1306 1251.57 37.0705 1256.69 42.1405C1259.1 44.5205 1262.96 45.3305 1265.87 43.3705C1268.78 41.4105 1269.92 37.7605 1268.47 34.5405C1267.96 33.4105 1266.32 33.1405 1265.33 33.7205C1264.17 34.4005 1264 35.7205 1264.51 36.8605L1264.52 36.8506Z" fill="#108C3D"/>
<path d="M1289.87 43.3314C1293.13 52.2414 1302.54 58.5014 1312.02 58.0514C1307.54 51.1414 1299.83 46.4114 1291.64 45.5514L1289.87 43.3314Z" fill="#108C3D"/>
<path d="M1282.11 34.6908C1289.68 29.3908 1299.99 28.2608 1308.52 31.8208C1302.18 37.4908 1292.58 39.2308 1284.65 36.1408L1282.11 34.7008L1282.11 34.6908Z" fill="#108C3D"/>
<path d="M1276.67 33.09C1276.67 33.09 1277.92 44.99 1286.69 50C1286.69 50 1286.69 39.98 1276.67 33.09Z" fill="#108C3D"/>
<path d="M1327.39 53.1306C1325.66 53.1306 1324.26 54.532 1324.26 56.2606C1324.26 57.9893 1325.66 59.3906 1327.39 59.3906C1329.12 59.3906 1330.52 57.9893 1330.52 56.2606C1330.52 54.532 1329.12 53.1306 1327.39 53.1306Z" fill="#108C3D"/>
<path d="M1314.86 49.9911C1314.86 48.2611 1316.26 46.8611 1317.99 46.8611C1319.72 46.8611 1321.12 48.2611 1321.12 49.9911C1321.12 51.7211 1319.72 53.1211 1317.99 53.1211C1316.26 53.1211 1314.86 51.7211 1314.86 49.9911Z" fill="#108C3D"/>
<path d="M1334.27 31.8407C1334.27 30.1107 1335.67 28.7107 1337.4 28.7107C1339.13 28.7107 1340.53 30.1107 1340.53 31.8407C1340.53 33.5707 1339.13 34.9707 1337.4 34.9707C1335.67 34.9707 1334.27 33.5707 1334.27 31.8407Z" fill="#108C3D"/>
<path d="M1313.61 31.8407C1313.61 30.1107 1315.01 28.7107 1316.74 28.7107C1318.47 28.7107 1319.87 30.1107 1319.87 31.8407C1319.87 33.5707 1318.47 34.9707 1316.74 34.9707C1315.01 34.9707 1313.61 33.5707 1313.61 31.8407Z" fill="#108C3D"/>
<path d="M1334.9 50.62C1334.9 48.89 1336.3 47.49 1338.03 47.49C1339.76 47.49 1341.16 48.89 1341.16 50.62C1341.16 52.35 1339.76 53.75 1338.03 53.75C1336.3 53.75 1334.9 52.35 1334.9 50.62Z" fill="#108C3D"/>
<path d="M1167.72 39.3569L1177.46 49.0938L1187.2 39.3569L1177.46 29.62L1167.72 39.3569Z" fill="#108C3D"/>
<path d="M1237.9 34.5393C1236.64 37.3393 1237.27 40.5093 1239.55 42.6193C1241.83 44.7293 1245.11 45.0093 1247.82 43.5393C1250.53 42.0693 1252.38 38.8493 1252.17 35.6893C1251.96 32.5293 1250.18 29.6893 1247.6 27.9093C1241.63 23.7993 1233.98 26.4193 1228.54 30.0693C1222.77 33.9393 1217.92 39.1293 1211.69 42.3093C1206.41 44.9993 1198.38 45.9993 1194.41 40.4893C1193.69 39.4893 1192.41 38.9993 1191.27 39.6693C1190.28 40.2493 1189.72 41.7993 1190.45 42.8093C1193.58 47.1593 1198.82 49.3393 1204.14 49.0993C1210.09 48.8293 1215.49 45.8493 1220.15 42.3393C1224.81 38.8293 1229.25 34.3993 1234.67 31.8293C1238.75 29.8893 1245.8 29.4293 1247.41 34.8893C1248.02 36.9693 1246.87 39.7393 1244.44 39.9393C1243.02 40.0593 1241.22 38.2893 1241.86 36.8593C1242.37 35.7293 1242.18 34.3993 1241.04 33.7193C1240.06 33.1493 1238.41 33.4093 1237.9 34.5393Z" fill="#108C3D"/>
<path d="M1216.5 43.3314C1213.24 52.2414 1203.83 58.5014 1194.35 58.0514C1198.83 51.1414 1206.54 46.4114 1214.73 45.5514L1216.5 43.3314Z" fill="#108C3D"/>
<path d="M1224.27 34.6908C1216.7 29.3908 1206.39 28.2608 1197.86 31.8208C1204.2 37.4908 1213.8 39.2308 1221.73 36.1408L1224.27 34.7008L1224.27 34.6908Z" fill="#108C3D"/>
<path d="M1229.71 33.09C1229.71 33.09 1228.46 44.99 1219.69 50C1219.69 50 1219.69 39.98 1229.71 33.09Z" fill="#108C3D"/>
<path d="M1114.88 36.8506C1115.44 38.1006 1113.99 39.8006 1112.72 39.9106C1110.82 40.0906 1109.25 38.1606 1109.13 36.4106C1108.98 34.2106 1110.57 32.2205 1112.44 31.2606C1114.83 30.0406 1117.69 30.2606 1120.17 31.0605C1125.73 32.8505 1130.2 37.3205 1134.69 40.8605C1139.18 44.4005 1144.49 47.9905 1150.48 48.8705C1156.47 49.7505 1162.66 47.8205 1166.28 42.8005C1167 41.7905 1166.45 40.2505 1165.46 39.6605C1164.31 38.9805 1163.05 39.4705 1162.32 40.4805C1158.9 45.2305 1152.13 45.1405 1147.21 43.2805C1140.79 40.8505 1135.81 35.6705 1130.4 31.6305C1124.99 27.5905 1118.11 24.0405 1111.4 26.7406C1105.43 29.1306 1101.93 37.0705 1107.05 42.1405C1109.46 44.5205 1113.32 45.3305 1116.23 43.3705C1119.14 41.4105 1120.28 37.7605 1118.83 34.5405C1118.32 33.4105 1116.68 33.1405 1115.69 33.7205C1114.53 34.4005 1114.36 35.7205 1114.87 36.8605L1114.88 36.8506Z" fill="#108C3D"/>
<path d="M1140.23 43.3314C1143.49 52.2414 1152.9 58.5014 1162.38 58.0514C1157.9 51.1414 1150.19 46.4114 1142 45.5514L1140.23 43.3314Z" fill="#108C3D"/>
<path d="M1132.47 34.6908C1140.04 29.3908 1150.35 28.2608 1158.88 31.8208C1152.54 37.4908 1142.94 39.2308 1135.01 36.1408L1132.47 34.7008L1132.47 34.6908Z" fill="#108C3D"/>
<path d="M1127.02 33.09C1127.02 33.09 1128.27 44.99 1137.04 50C1137.04 50 1137.04 39.98 1127.02 33.09Z" fill="#108C3D"/>
<path d="M1177.74 53.1306C1176.01 53.1306 1174.61 54.532 1174.61 56.2606C1174.61 57.9893 1176.01 59.3906 1177.74 59.3906C1179.47 59.3906 1180.87 57.9893 1180.87 56.2606C1180.87 54.532 1179.47 53.1306 1177.74 53.1306Z" fill="#108C3D"/>
<path d="M1165.22 49.9911C1165.22 48.2611 1166.62 46.8611 1168.35 46.8611C1170.08 46.8611 1171.48 48.2611 1171.48 49.9911C1171.48 51.7211 1170.08 53.1211 1168.35 53.1211C1166.62 53.1211 1165.22 51.7211 1165.22 49.9911Z" fill="#108C3D"/>
<path d="M1184.63 31.8407C1184.63 30.1107 1186.03 28.7107 1187.76 28.7107C1189.49 28.7107 1190.89 30.1107 1190.89 31.8407C1190.89 33.5707 1189.49 34.9707 1187.76 34.9707C1186.03 34.9707 1184.63 33.5707 1184.63 31.8407Z" fill="#108C3D"/>
<path d="M1163.97 31.8407C1163.97 30.1107 1165.37 28.7107 1167.1 28.7107C1168.83 28.7107 1170.23 30.1107 1170.23 31.8407C1170.23 33.5707 1168.83 34.9707 1167.1 34.9707C1165.37 34.9707 1163.97 33.5707 1163.97 31.8407Z" fill="#108C3D"/>
<path d="M1188.38 47.49C1186.65 47.49 1185.25 48.8913 1185.25 50.62C1185.25 52.3487 1186.65 53.75 1188.38 53.75C1190.11 53.75 1191.51 52.3487 1191.51 50.62C1191.51 48.8913 1190.11 47.49 1188.38 47.49Z" fill="#108C3D"/>
<path d="M1018.08 39.3491L1027.81 49.0859L1037.55 39.3491L1027.81 29.6122L1018.08 39.3491Z" fill="#108C3D"/>
<path d="M1088.25 34.5393C1086.99 37.3393 1087.62 40.5093 1089.9 42.6193C1092.18 44.7293 1095.46 45.0093 1098.17 43.5393C1100.88 42.0693 1102.73 38.8493 1102.52 35.6893C1102.31 32.5293 1100.53 29.6893 1097.95 27.9093C1091.98 23.7993 1084.33 26.4193 1078.89 30.0693C1073.12 33.9393 1068.27 39.1293 1062.04 42.3093C1056.76 44.9993 1048.73 45.9993 1044.76 40.4893C1044.04 39.4893 1042.76 38.9993 1041.62 39.6693C1040.63 40.2493 1040.07 41.7993 1040.8 42.8093C1043.93 47.1593 1049.17 49.3393 1054.49 49.0993C1060.44 48.8293 1065.84 45.8493 1070.5 42.3393C1075.16 38.8293 1079.6 34.3993 1085.02 31.8293C1089.1 29.8893 1096.15 29.4293 1097.76 34.8893C1098.37 36.9693 1097.22 39.7393 1094.79 39.9393C1093.37 40.0593 1091.57 38.2893 1092.21 36.8593C1092.72 35.7293 1092.53 34.3993 1091.39 33.7193C1090.41 33.1493 1088.76 33.4093 1088.25 34.5393Z" fill="#108C3D"/>
<path d="M1066.86 43.3314C1063.6 52.2414 1054.19 58.5014 1044.71 58.0514C1049.19 51.1414 1056.9 46.4114 1065.09 45.5514L1066.86 43.3314Z" fill="#108C3D"/>
<path d="M1074.62 34.6908C1067.05 29.3908 1056.74 28.2608 1048.21 31.8208C1054.55 37.4908 1064.15 39.2308 1072.08 36.1408L1074.62 34.7008L1074.62 34.6908Z" fill="#108C3D"/>
<path d="M1080.06 33.09C1080.06 33.09 1078.81 44.99 1070.04 50C1070.04 50 1070.04 39.98 1080.06 33.09Z" fill="#108C3D"/>
<path d="M965.231 36.8506C965.791 38.1006 964.341 39.8006 963.071 39.9106C961.171 40.0906 959.601 38.1606 959.481 36.4106C959.331 34.2106 960.921 32.2205 962.791 31.2606C965.181 30.0406 968.041 30.2606 970.521 31.0605C976.081 32.8505 980.551 37.3205 985.041 40.8605C989.531 44.4005 994.841 47.9905 1000.83 48.8705C1006.82 49.7505 1013.01 47.8205 1016.63 42.8005C1017.35 41.7905 1016.8 40.2505 1015.81 39.6605C1014.66 38.9805 1013.4 39.4705 1012.67 40.4805C1009.25 45.2305 1002.48 45.1405 997.561 43.2805C991.141 40.8505 986.161 35.6705 980.751 31.6305C975.341 27.5905 968.461 24.0405 961.751 26.7406C955.781 29.1306 952.281 37.0705 957.401 42.1405C959.811 44.5205 963.671 45.3305 966.581 43.3705C969.491 41.4105 970.631 37.7605 969.181 34.5405C968.671 33.4105 967.031 33.1405 966.041 33.7205C964.881 34.4005 964.711 35.7205 965.221 36.8605L965.231 36.8506Z" fill="#108C3D"/>
<path d="M990.58 43.3314C993.84 52.2414 1003.25 58.5014 1012.73 58.0514C1008.25 51.1414 1000.54 46.4114 992.35 45.5514L990.58 43.3314Z" fill="#108C3D"/>
<path d="M982.82 34.6908C990.39 29.3908 1000.7 28.2608 1009.23 31.8208C1002.89 37.4908 993.29 39.2308 985.36 36.1408L982.82 34.7008L982.82 34.6908Z" fill="#108C3D"/>
<path d="M977.38 33.09C977.38 33.09 978.63 44.99 987.4 50C987.4 50 987.4 39.98 977.38 33.09Z" fill="#108C3D"/>
<path d="M1024.96 56.2606C1024.96 54.5306 1026.36 53.1306 1028.09 53.1306C1029.82 53.1306 1031.22 54.5306 1031.22 56.2606C1031.22 57.9906 1029.82 59.3906 1028.09 59.3906C1026.36 59.3906 1024.96 57.9906 1024.96 56.2606Z" fill="#108C3D"/>
<path d="M1015.57 49.9911C1015.57 48.2611 1016.97 46.8611 1018.7 46.8611C1020.43 46.8611 1021.83 48.2611 1021.83 49.9911C1021.83 51.7211 1020.43 53.1211 1018.7 53.1211C1016.97 53.1211 1015.57 51.7211 1015.57 49.9911Z" fill="#108C3D"/>
<path d="M1034.98 31.8407C1034.98 30.1107 1036.38 28.7107 1038.11 28.7107C1039.84 28.7107 1041.24 30.1107 1041.24 31.8407C1041.24 33.5707 1039.84 34.9707 1038.11 34.9707C1036.38 34.9707 1034.98 33.5707 1034.98 31.8407Z" fill="#108C3D"/>
<path d="M1014.32 31.8407C1014.32 30.1107 1015.72 28.7107 1017.45 28.7107C1019.18 28.7107 1020.58 30.1107 1020.58 31.8407C1020.58 33.5707 1019.18 34.9707 1017.45 34.9707C1015.72 34.9707 1014.32 33.5707 1014.32 31.8407Z" fill="#108C3D"/>
<path d="M1035.61 50.62C1035.61 48.89 1037.01 47.49 1038.74 47.49C1040.47 47.49 1041.87 48.89 1041.87 50.62C1041.87 52.35 1040.47 53.75 1038.74 53.75C1037.01 53.75 1035.61 52.35 1035.61 50.62Z" fill="#108C3D"/>
<path d="M868.435 39.3569L878.172 49.0938L887.909 39.3569L878.172 29.62L868.435 39.3569Z" fill="#108C3D"/>
<path d="M938.601 34.5393C937.341 37.3393 937.971 40.5093 940.251 42.6193C942.531 44.7293 945.81 45.0093 948.52 43.5393C951.23 42.0693 953.08 38.8493 952.87 35.6893C952.66 32.5293 950.88 29.6893 948.3 27.9093C942.33 23.7993 934.68 26.4193 929.24 30.0693C923.47 33.9393 918.621 39.1293 912.391 42.3093C907.111 44.9993 899.081 45.9993 895.111 40.4893C894.391 39.4893 893.111 38.9993 891.971 39.6693C890.981 40.2493 890.42 41.7993 891.15 42.8093C894.28 47.1593 899.521 49.3393 904.84 49.0993C910.791 48.8293 916.191 45.8493 920.851 42.3393C925.511 38.8293 929.95 34.3993 935.37 31.8293C939.45 29.8893 946.501 29.4293 948.111 34.8893C948.721 36.9693 947.571 39.7393 945.141 39.9393C943.721 40.0593 941.921 38.2893 942.561 36.8593C943.071 35.7293 942.88 34.3993 941.74 33.7193C940.76 33.1493 939.111 33.4093 938.601 34.5393Z" fill="#108C3D"/>
<path d="M917.211 43.3314C913.951 52.2414 904.541 58.5014 895.061 58.0514C899.541 51.1414 907.251 46.4114 915.441 45.5514L917.211 43.3314Z" fill="#108C3D"/>
<path d="M924.971 34.6908C917.401 29.3908 907.091 28.2608 898.561 31.8208C904.901 37.4908 914.501 39.2308 922.431 36.1408L924.971 34.7008L924.971 34.6908Z" fill="#108C3D"/>
<path d="M930.42 33.09C930.42 33.09 929.17 44.99 920.4 50C920.4 50 920.4 39.98 930.42 33.09Z" fill="#108C3D"/>
<path d="M815.59 36.8506C816.15 38.1006 814.7 39.8006 813.43 39.9106C811.53 40.0906 809.96 38.1606 809.84 36.4106C809.69 34.2106 811.28 32.2205 813.15 31.2606C815.54 30.0406 818.4 30.2606 820.88 31.0605C826.44 32.8505 830.91 37.3205 835.4 40.8605C839.89 44.4005 845.2 47.9905 851.19 48.8705C857.18 49.7505 863.37 47.8205 866.99 42.8005C867.71 41.7905 867.16 40.2505 866.17 39.6605C865.02 38.9805 863.76 39.4705 863.03 40.4805C859.61 45.2305 852.84 45.1405 847.92 43.2805C841.5 40.8505 836.52 35.6705 831.11 31.6305C825.7 27.5905 818.82 24.0405 812.11 26.7406C806.14 29.1306 802.64 37.0705 807.76 42.1405C810.17 44.5205 814.03 45.3305 816.94 43.3705C819.85 41.4105 820.99 37.7605 819.54 34.5405C819.03 33.4105 817.39 33.1405 816.4 33.7205C815.24 34.4005 815.07 35.7205 815.58 36.8605L815.59 36.8506Z" fill="#108C3D"/>
<path d="M840.94 43.3314C844.2 52.2414 853.61 58.5014 863.09 58.0514C858.61 51.1414 850.9 46.4114 842.71 45.5514L840.94 43.3314Z" fill="#108C3D"/>
<path d="M833.17 34.6908C840.74 29.3908 851.05 28.2608 859.58 31.8208C853.24 37.4908 843.64 39.2308 835.71 36.1408L833.17 34.7008L833.17 34.6908Z" fill="#108C3D"/>
<path d="M827.73 33.09C827.73 33.09 828.98 44.99 837.75 50C837.75 50 837.75 39.98 827.73 33.09Z" fill="#108C3D"/>
<path d="M875.32 56.2606C875.32 54.5306 876.72 53.1306 878.45 53.1306C880.18 53.1306 881.58 54.5306 881.58 56.2606C881.58 57.9906 880.18 59.3906 878.45 59.3906C876.72 59.3906 875.32 57.9906 875.32 56.2606Z" fill="#108C3D"/>
<path d="M865.92 49.9911C865.92 48.2611 867.32 46.8611 869.05 46.8611C870.78 46.8611 872.18 48.2611 872.18 49.9911C872.18 51.7211 870.78 53.1211 869.05 53.1211C867.32 53.1211 865.92 51.7211 865.92 49.9911Z" fill="#108C3D"/>
<path d="M885.34 31.8407C885.34 30.1107 886.74 28.7107 888.47 28.7107C890.2 28.7107 891.6 30.1107 891.6 31.8407C891.6 33.5707 890.2 34.9707 888.47 34.9707C886.74 34.9707 885.34 33.5707 885.34 31.8407Z" fill="#108C3D"/>
<path d="M864.67 31.8407C864.67 30.1107 866.07 28.7107 867.8 28.7107C869.53 28.7107 870.93 30.1107 870.93 31.8407C870.93 33.5707 869.53 34.9707 867.8 34.9707C866.07 34.9707 864.67 33.5707 864.67 31.8407Z" fill="#108C3D"/>
<path d="M885.961 50.62C885.961 48.89 887.361 47.49 889.091 47.49C890.821 47.49 892.221 48.89 892.221 50.62C892.221 52.35 890.821 53.75 889.091 53.75C887.361 53.75 885.961 52.35 885.961 50.62Z" fill="#108C3D"/>
<path d="M718.787 39.3569L728.523 49.0938L738.26 39.3569L728.523 29.62L718.787 39.3569Z" fill="#108C3D"/>
<path d="M788.96 34.5393C787.7 37.3393 788.33 40.5093 790.61 42.6193C792.89 44.7293 796.17 45.0093 798.88 43.5393C801.59 42.0693 803.44 38.8493 803.23 35.6893C803.02 32.5293 801.24 29.6893 798.66 27.9093C792.69 23.7993 785.04 26.4193 779.6 30.0693C773.83 33.9393 768.98 39.1293 762.75 42.3093C757.47 44.9993 749.44 45.9993 745.47 40.4893C744.75 39.4893 743.47 38.9993 742.33 39.6693C741.34 40.2493 740.78 41.7993 741.51 42.8093C744.64 47.1593 749.88 49.3393 755.2 49.0993C761.15 48.8293 766.55 45.8493 771.21 42.3393C775.87 38.8293 780.31 34.3993 785.73 31.8293C789.81 29.8893 796.86 29.4293 798.47 34.8893C799.08 36.9693 797.93 39.7393 795.5 39.9393C794.08 40.0593 792.28 38.2893 792.92 36.8593C793.43 35.7293 793.24 34.3993 792.1 33.7193C791.12 33.1493 789.47 33.4093 788.96 34.5393Z" fill="#108C3D"/>
<path d="M767.57 43.3314C764.31 52.2414 754.9 58.5014 745.42 58.0514C749.9 51.1414 757.61 46.4114 765.8 45.5514L767.57 43.3314Z" fill="#108C3D"/>
<path d="M775.33 34.6908C767.76 29.3908 757.45 28.2608 748.92 31.8208C755.26 37.4908 764.86 39.2308 772.79 36.1408L775.33 34.7008L775.33 34.6908Z" fill="#108C3D"/>
<path d="M780.77 33.09C780.77 33.09 779.52 44.99 770.75 50C770.75 50 770.75 39.98 780.77 33.09Z" fill="#108C3D"/>
<path d="M665.94 36.8506C666.5 38.1006 665.05 39.8006 663.78 39.9106C661.88 40.0906 660.31 38.1606 660.19 36.4106C660.04 34.2106 661.63 32.2205 663.5 31.2606C665.89 30.0406 668.75 30.2606 671.23 31.0605C676.79 32.8505 681.26 37.3205 685.75 40.8605C690.24 44.4005 695.55 47.9905 701.54 48.8705C707.53 49.7505 713.72 47.8205 717.34 42.8005C718.06 41.7905 717.51 40.2505 716.52 39.6605C715.37 38.9805 714.11 39.4705 713.38 40.4805C709.96 45.2305 703.19 45.1405 698.27 43.2805C691.85 40.8505 686.87 35.6705 681.46 31.6305C676.05 27.5905 669.17 24.0405 662.46 26.7406C656.49 29.1306 652.99 37.0705 658.11 42.1405C660.52 44.5205 664.38 45.3305 667.29 43.3705C670.2 41.4105 671.34 37.7605 669.89 34.5405C669.38 33.4105 667.74 33.1405 666.75 33.7205C665.59 34.4005 665.42 35.7205 665.93 36.8605L665.94 36.8506Z" fill="#108C3D"/>
<path d="M691.289 43.3314C694.549 52.2414 703.959 58.5014 713.439 58.0514C708.959 51.1414 701.25 46.4114 693.06 45.5514L691.289 43.3314Z" fill="#108C3D"/>
<path d="M683.529 34.6908C691.099 29.3908 701.409 28.2608 709.939 31.8208C703.599 37.4908 693.999 39.2308 686.069 36.1408L683.529 34.7008L683.529 34.6908Z" fill="#108C3D"/>
<path d="M678.08 33.09C678.08 33.09 679.33 44.99 688.1 50C688.1 50 688.1 39.98 678.08 33.09Z" fill="#108C3D"/>
<path d="M728.8 53.1306C727.071 53.1306 725.67 54.532 725.67 56.2606C725.67 57.9893 727.071 59.3906 728.8 59.3906C730.528 59.3906 731.93 57.9893 731.93 56.2606C731.93 54.532 730.528 53.1306 728.8 53.1306Z" fill="#108C3D"/>
<path d="M716.279 49.9911C716.279 48.2611 717.679 46.8611 719.409 46.8611C721.139 46.8611 722.539 48.2611 722.539 49.9911C722.539 51.7211 721.139 53.1211 719.409 53.1211C717.679 53.1211 716.279 51.7211 716.279 49.9911Z" fill="#108C3D"/>
<path d="M735.689 31.8407C735.689 30.1107 737.089 28.7107 738.819 28.7107C740.549 28.7107 741.949 30.1107 741.949 31.8407C741.949 33.5707 740.549 34.9707 738.819 34.9707C737.089 34.9707 735.689 33.5707 735.689 31.8407Z" fill="#108C3D"/>
<path d="M715.029 31.8407C715.029 30.1107 716.429 28.7107 718.159 28.7107C719.889 28.7107 721.289 30.1107 721.289 31.8407C721.289 33.5707 719.889 34.9707 718.159 34.9707C716.429 34.9707 715.029 33.5707 715.029 31.8407Z" fill="#108C3D"/>
<path d="M739.45 47.49C737.721 47.49 736.32 48.8913 736.32 50.62C736.32 52.3487 737.721 53.75 739.45 53.75C741.179 53.75 742.58 52.3487 742.58 50.62C742.58 48.8913 741.179 47.49 739.45 47.49Z" fill="#108C3D"/>
<path d="M2151 1.57031L1403 1.57038" stroke="#108C3D" stroke-width="2" stroke-miterlimit="10"/>
<path d="M2151 22.5898L1403 22.5899" stroke="#108C3D" stroke-width="2" stroke-miterlimit="10"/>
<path d="M1915.29 1L1915.29 13.5L1906.21 13.5L1906.21 7.82" stroke="#108C3D" stroke-width="2" stroke-miterlimit="10"/>
<path d="M1893.14 22.5898L1893.14 10.0898L1902.23 10.0898L1902.23 15.7698" stroke="#108C3D" stroke-width="2" stroke-miterlimit="10"/>
<path d="M1886.9 1L1886.9 13.5L1877.81 13.5L1877.81 7.82" stroke="#108C3D" stroke-width="2" stroke-miterlimit="10"/>
<path d="M1864.75 22.5898L1864.75 10.0898L1873.83 10.0898L1873.83 15.7698" stroke="#108C3D" stroke-width="2" stroke-miterlimit="10"/>
<path d="M1858.5 1L1858.5 13.5L1849.41 13.5L1849.41 7.82" stroke="#108C3D" stroke-width="2" stroke-miterlimit="10"/>
<path d="M1836.35 22.5898L1836.35 10.0898L1845.44 10.0898L1845.44 15.7698" stroke="#108C3D" stroke-width="2" stroke-miterlimit="10"/>
<path d="M1830.1 1L1830.1 13.5L1821.01 13.5L1821.01 7.82" stroke="#108C3D" stroke-width="2" stroke-miterlimit="10"/>
<path d="M1807.95 22.5898L1807.95 10.0898L1817.04 10.0898L1817.04 15.7698" stroke="#108C3D" stroke-width="2" stroke-miterlimit="10"/>
<path d="M1801.7 1L1801.7 13.5L1792.62 13.5L1792.62 7.82" stroke="#108C3D" stroke-width="2" stroke-miterlimit="10"/>
<path d="M1779.55 22.5898L1779.55 10.0898L1788.64 10.0898L1788.64 15.7698" stroke="#108C3D" stroke-width="2" stroke-miterlimit="10"/>
<path d="M1773.31 1L1773.31 13.5L1764.22 13.5L1764.22 7.82" stroke="#108C3D" stroke-width="2" stroke-miterlimit="10"/>
<path d="M1751.16 22.5898L1751.16 10.0898L1760.24 10.0898L1760.24 15.7698" stroke="#108C3D" stroke-width="2" stroke-miterlimit="10"/>
<path d="M1744.91 1L1744.91 13.5L1735.82 13.5L1735.82 7.82" stroke="#108C3D" stroke-width="2" stroke-miterlimit="10"/>
<path d="M1722.76 22.5898L1722.76 10.0898L1731.84 10.0898L1731.84 15.7698" stroke="#108C3D" stroke-width="2" stroke-miterlimit="10"/>
<path d="M1716.51 1L1716.51 13.5L1707.42 13.5L1707.42 7.82" stroke="#108C3D" stroke-width="2" stroke-miterlimit="10"/>
<path d="M1694.36 22.5898L1694.36 10.0898L1703.45 10.0898L1703.45 15.7698" stroke="#108C3D" stroke-width="2" stroke-miterlimit="10"/>
<path d="M1688.11 1L1688.11 13.5L1679.03 13.5L1679.03 7.82" stroke="#108C3D" stroke-width="2" stroke-miterlimit="10"/>
<path d="M1665.96 22.5898L1665.96 10.0898L1675.05 10.0898L1675.05 15.7698" stroke="#108C3D" stroke-width="2" stroke-miterlimit="10"/>
<path d="M1659.71 1L1659.71 13.5L1650.63 13.5L1650.63 7.82" stroke="#108C3D" stroke-width="2" stroke-miterlimit="10"/>
<path d="M1637.56 22.5898L1637.56 10.0898L1646.65 10.0898L1646.65 15.7698" stroke="#108C3D" stroke-width="2" stroke-miterlimit="10"/>
<path d="M1631.32 1L1631.32 13.5L1622.23 13.5L1622.23 7.82" stroke="#108C3D" stroke-width="2" stroke-miterlimit="10"/>
<path d="M1609.17 22.5898L1609.17 10.0898L1618.25 10.0898L1618.25 15.7698" stroke="#108C3D" stroke-width="2" stroke-miterlimit="10"/>
<path d="M1602.92 1L1602.92 13.5L1593.83 13.5L1593.83 7.82" stroke="#108C3D" stroke-width="2" stroke-miterlimit="10"/>
<path d="M1580.77 22.5898L1580.77 10.0898L1589.86 10.0898L1589.86 15.7698" stroke="#108C3D" stroke-width="2" stroke-miterlimit="10"/>
<path d="M1574.52 1L1574.52 13.5L1565.43 13.5L1565.43 7.82" stroke="#108C3D" stroke-width="2" stroke-miterlimit="10"/>
<path d="M1552.37 22.5898L1552.37 10.0898L1561.46 10.0898L1561.46 15.7698" stroke="#108C3D" stroke-width="2" stroke-miterlimit="10"/>
<path d="M1546.12 1L1546.12 13.5L1537.04 13.5L1537.04 7.82" stroke="#108C3D" stroke-width="2" stroke-miterlimit="10"/>
<path d="M1523.97 22.5898L1523.97 10.0898L1533.06 10.0898L1533.06 15.7698" stroke="#108C3D" stroke-width="2" stroke-miterlimit="10"/>
<path d="M1517.73 1L1517.73 13.5L1508.64 13.5L1508.64 7.82" stroke="#108C3D" stroke-width="2" stroke-miterlimit="10"/>
<path d="M1495.58 22.5898L1495.58 10.0898L1504.66 10.0898L1504.66 15.7698" stroke="#108C3D" stroke-width="2" stroke-miterlimit="10"/>
<path d="M1489.33 1L1489.33 13.5L1480.24 13.5L1480.24 7.82" stroke="#108C3D" stroke-width="2" stroke-miterlimit="10"/>
<path d="M1467.18 22.5898L1467.18 10.0898L1476.26 10.0898L1476.26 15.7698" stroke="#108C3D" stroke-width="2" stroke-miterlimit="10"/>
<path d="M1460.93 1L1460.93 13.5L1451.84 13.5L1451.84 7.82" stroke="#108C3D" stroke-width="2" stroke-miterlimit="10"/>
<path d="M1438.78 22.5898L1438.78 10.0898L1447.87 10.0898L1447.87 15.7698" stroke="#108C3D" stroke-width="2" stroke-miterlimit="10"/>
<path d="M1432.53 1L1432.53 13.5L1423.44 13.5L1423.44 7.82" stroke="#108C3D" stroke-width="2" stroke-miterlimit="10"/>
<path d="M1410.38 22.5898L1410.38 10.0898L1419.47 10.0898L1419.47 15.7698" stroke="#108C3D" stroke-width="2" stroke-miterlimit="10"/>
<path d="M1915.72 39.3569L1925.46 49.0938L1935.2 39.3569L1925.46 29.62L1915.72 39.3569Z" fill="#108C3D"/>
<path d="M1862.88 36.8506C1863.44 38.1006 1861.99 39.8006 1860.72 39.9106C1858.82 40.0906 1857.25 38.1606 1857.13 36.4106C1856.98 34.2106 1858.57 32.2205 1860.44 31.2606C1862.83 30.0406 1865.69 30.2606 1868.17 31.0605C1873.73 32.8505 1878.2 37.3205 1882.69 40.8605C1887.18 44.4005 1892.49 47.9905 1898.48 48.8705C1904.47 49.7505 1910.66 47.8205 1914.28 42.8005C1915 41.7905 1914.45 40.2505 1913.46 39.6605C1912.31 38.9805 1911.05 39.4705 1910.32 40.4805C1906.9 45.2305 1900.13 45.1405 1895.21 43.2805C1888.79 40.8505 1883.81 35.6705 1878.4 31.6305C1872.99 27.5905 1866.11 24.0405 1859.4 26.7406C1853.43 29.1306 1849.93 37.0705 1855.05 42.1405C1857.46 44.5205 1861.32 45.3305 1864.23 43.3705C1867.14 41.4105 1868.28 37.7605 1866.83 34.5405C1866.32 33.4105 1864.68 33.1405 1863.69 33.7205C1862.53 34.4005 1862.36 35.7205 1862.87 36.8605L1862.88 36.8506Z" fill="#108C3D"/>
<path d="M1888.23 43.3314C1891.49 52.2414 1900.9 58.5014 1910.38 58.0514C1905.9 51.1414 1898.19 46.4114 1890 45.5514L1888.23 43.3314Z" fill="#108C3D"/>
<path d="M1880.47 34.6908C1888.04 29.3908 1898.35 28.2608 1906.88 31.8208C1900.54 37.4908 1890.94 39.2308 1883.01 36.1408L1880.47 34.7008L1880.47 34.6908Z" fill="#108C3D"/>
<path d="M1875.02 33.09C1875.02 33.09 1876.27 44.99 1885.04 50C1885.04 50 1885.04 39.98 1875.02 33.09Z" fill="#108C3D"/>
<path d="M1913.22 49.9911C1913.22 48.2611 1914.62 46.8611 1916.35 46.8611C1918.08 46.8611 1919.48 48.2611 1919.48 49.9911C1919.48 51.7211 1918.08 53.1211 1916.35 53.1211C1914.62 53.1211 1913.22 51.7211 1913.22 49.9911Z" fill="#108C3D"/>
<path d="M1911.97 31.8407C1911.97 30.1107 1913.37 28.7107 1915.1 28.7107C1916.83 28.7107 1918.23 30.1107 1918.23 31.8407C1918.23 33.5707 1916.83 34.9707 1915.1 34.9707C1913.37 34.9707 1911.97 33.5707 1911.97 31.8407Z" fill="#108C3D"/>
<path d="M1766.08 39.3491L1775.81 49.0859L1785.55 39.3491L1775.81 29.6122L1766.08 39.3491Z" fill="#108C3D"/>
<path d="M1836.25 34.5393C1834.99 37.3393 1835.62 40.5093 1837.9 42.6193C1840.18 44.7293 1843.46 45.0093 1846.17 43.5393C1848.88 42.0693 1850.73 38.8493 1850.52 35.6893C1850.31 32.5293 1848.53 29.6893 1845.95 27.9093C1839.98 23.7993 1832.33 26.4193 1826.89 30.0693C1821.12 33.9393 1816.27 39.1293 1810.04 42.3093C1804.76 44.9993 1796.73 45.9993 1792.76 40.4893C1792.04 39.4893 1790.76 38.9993 1789.62 39.6693C1788.63 40.2493 1788.07 41.7993 1788.8 42.8093C1791.93 47.1593 1797.17 49.3393 1802.49 49.0993C1808.44 48.8293 1813.84 45.8493 1818.5 42.3393C1823.16 38.8293 1827.6 34.3993 1833.02 31.8293C1837.1 29.8893 1844.15 29.4293 1845.76 34.8893C1846.37 36.9693 1845.22 39.7393 1842.79 39.9393C1841.37 40.0593 1839.57 38.2893 1840.21 36.8593C1840.72 35.7293 1840.53 34.3993 1839.39 33.7193C1838.41 33.1493 1836.76 33.4093 1836.25 34.5393Z" fill="#108C3D"/>
<path d="M1814.86 43.3314C1811.6 52.2414 1802.19 58.5014 1792.71 58.0514C1797.19 51.1414 1804.9 46.4114 1813.09 45.5514L1814.86 43.3314Z" fill="#108C3D"/>
<path d="M1822.62 34.6908C1815.05 29.3908 1804.74 28.2608 1796.21 31.8208C1802.55 37.4908 1812.15 39.2308 1820.08 36.1408L1822.62 34.7008L1822.62 34.6908Z" fill="#108C3D"/>
<path d="M1828.06 33.09C1828.06 33.09 1826.81 44.99 1818.04 50C1818.04 50 1818.04 39.98 1828.06 33.09Z" fill="#108C3D"/>
<path d="M1713.23 36.8506C1713.79 38.1006 1712.34 39.8006 1711.07 39.9106C1709.17 40.0906 1707.6 38.1606 1707.48 36.4106C1707.33 34.2106 1708.92 32.2205 1710.79 31.2606C1713.18 30.0406 1716.04 30.2606 1718.52 31.0605C1724.08 32.8505 1728.55 37.3205 1733.04 40.8605C1737.53 44.4005 1742.84 47.9905 1748.83 48.8705C1754.82 49.7505 1761.01 47.8205 1764.63 42.8005C1765.35 41.7905 1764.8 40.2505 1763.81 39.6605C1762.66 38.9805 1761.4 39.4705 1760.67 40.4805C1757.25 45.2305 1750.48 45.1405 1745.56 43.2805C1739.14 40.8505 1734.16 35.6705 1728.75 31.6305C1723.34 27.5905 1716.46 24.0405 1709.75 26.7406C1703.78 29.1306 1700.28 37.0705 1705.4 42.1405C1707.81 44.5205 1711.67 45.3305 1714.58 43.3705C1717.49 41.4105 1718.63 37.7605 1717.18 34.5405C1716.67 33.4105 1715.03 33.1405 1714.04 33.7205C1712.88 34.4005 1712.71 35.7205 1713.22 36.8605L1713.23 36.8506Z" fill="#108C3D"/>
<path d="M1738.58 43.3314C1741.84 52.2414 1751.25 58.5014 1760.73 58.0514C1756.25 51.1414 1748.54 46.4114 1740.35 45.5514L1738.58 43.3314Z" fill="#108C3D"/>
<path d="M1730.82 34.6908C1738.39 29.3908 1748.7 28.2608 1757.23 31.8208C1750.89 37.4908 1741.29 39.2308 1733.36 36.1408L1730.82 34.7008L1730.82 34.6908Z" fill="#108C3D"/>
<path d="M1725.38 33.09C1725.38 33.09 1726.63 44.99 1735.4 50C1735.4 50 1735.4 39.98 1725.38 33.09Z" fill="#108C3D"/>
<path d="M1772.96 56.2606C1772.96 54.5306 1774.36 53.1306 1776.09 53.1306C1777.82 53.1306 1779.22 54.5306 1779.22 56.2606C1779.22 57.9906 1777.82 59.3906 1776.09 59.3906C1774.36 59.3906 1772.96 57.9906 1772.96 56.2606Z" fill="#108C3D"/>
<path d="M1763.57 49.9911C1763.57 48.2611 1764.97 46.8611 1766.7 46.8611C1768.43 46.8611 1769.83 48.2611 1769.83 49.9911C1769.83 51.7211 1768.43 53.1211 1766.7 53.1211C1764.97 53.1211 1763.57 51.7211 1763.57 49.9911Z" fill="#108C3D"/>
<path d="M1782.98 31.8407C1782.98 30.1107 1784.38 28.7107 1786.11 28.7107C1787.84 28.7107 1789.24 30.1107 1789.24 31.8407C1789.24 33.5707 1787.84 34.9707 1786.11 34.9707C1784.38 34.9707 1782.98 33.5707 1782.98 31.8407Z" fill="#108C3D"/>
<path d="M1762.32 31.8407C1762.32 30.1107 1763.72 28.7107 1765.45 28.7107C1767.18 28.7107 1768.58 30.1107 1768.58 31.8407C1768.58 33.5707 1767.18 34.9707 1765.45 34.9707C1763.72 34.9707 1762.32 33.5707 1762.32 31.8407Z" fill="#108C3D"/>
<path d="M1783.61 50.62C1783.61 48.89 1785.01 47.49 1786.74 47.49C1788.47 47.49 1789.87 48.89 1789.87 50.62C1789.87 52.35 1788.47 53.75 1786.74 53.75C1785.01 53.75 1783.61 52.35 1783.61 50.62Z" fill="#108C3D"/>
<path d="M1616.44 39.3569L1626.17 49.0938L1635.91 39.3569L1626.17 29.62L1616.44 39.3569Z" fill="#108C3D"/>
<path d="M1686.6 34.5393C1685.34 37.3393 1685.97 40.5093 1688.25 42.6193C1690.53 44.7293 1693.81 45.0093 1696.52 43.5393C1699.23 42.0693 1701.08 38.8493 1700.87 35.6893C1700.66 32.5293 1698.88 29.6893 1696.3 27.9093C1690.33 23.7993 1682.68 26.4193 1677.24 30.0693C1671.47 33.9393 1666.62 39.1293 1660.39 42.3093C1655.11 44.9993 1647.08 45.9993 1643.11 40.4893C1642.39 39.4893 1641.11 38.9993 1639.97 39.6693C1638.98 40.2493 1638.42 41.7993 1639.15 42.8093C1642.28 47.1593 1647.52 49.3393 1652.84 49.0993C1658.79 48.8293 1664.19 45.8493 1668.85 42.3393C1673.51 38.8293 1677.95 34.3993 1683.37 31.8293C1687.45 29.8893 1694.5 29.4293 1696.11 34.8893C1696.72 36.9693 1695.57 39.7393 1693.14 39.9393C1691.72 40.0593 1689.92 38.2893 1690.56 36.8593C1691.07 35.7293 1690.88 34.3993 1689.74 33.7193C1688.76 33.1493 1687.11 33.4093 1686.6 34.5393Z" fill="#108C3D"/>
<path d="M1665.21 43.3314C1661.95 52.2414 1652.54 58.5014 1643.06 58.0514C1647.54 51.1414 1655.25 46.4114 1663.44 45.5514L1665.21 43.3314Z" fill="#108C3D"/>
<path d="M1672.97 34.6908C1665.4 29.3908 1655.09 28.2608 1646.56 31.8208C1652.9 37.4908 1662.5 39.2308 1670.43 36.1408L1672.97 34.7008L1672.97 34.6908Z" fill="#108C3D"/>
<path d="M1678.42 33.09C1678.42 33.09 1677.17 44.99 1668.4 50C1668.4 50 1668.4 39.98 1678.42 33.09Z" fill="#108C3D"/>
<path d="M1563.59 36.8506C1564.15 38.1006 1562.7 39.8006 1561.43 39.9106C1559.53 40.0906 1557.96 38.1606 1557.84 36.4106C1557.69 34.2106 1559.28 32.2205 1561.15 31.2606C1563.54 30.0406 1566.4 30.2606 1568.88 31.0605C1574.44 32.8505 1578.91 37.3205 1583.4 40.8605C1587.89 44.4005 1593.2 47.9905 1599.19 48.8705C1605.18 49.7505 1611.37 47.8205 1614.99 42.8005C1615.71 41.7905 1615.16 40.2505 1614.17 39.6605C1613.02 38.9805 1611.76 39.4705 1611.03 40.4805C1607.61 45.2305 1600.84 45.1405 1595.92 43.2805C1589.5 40.8505 1584.52 35.6705 1579.11 31.6305C1573.7 27.5905 1566.82 24.0405 1560.11 26.7406C1554.14 29.1306 1550.64 37.0705 1555.76 42.1405C1558.17 44.5205 1562.03 45.3305 1564.94 43.3705C1567.85 41.4105 1568.99 37.7605 1567.54 34.5405C1567.03 33.4105 1565.39 33.1405 1564.4 33.7205C1563.24 34.4005 1563.07 35.7205 1563.58 36.8605L1563.59 36.8506Z" fill="#108C3D"/>
<path d="M1588.94 43.3314C1592.2 52.2414 1601.61 58.5014 1611.09 58.0514C1606.61 51.1414 1598.9 46.4114 1590.71 45.5514L1588.94 43.3314Z" fill="#108C3D"/>
<path d="M1581.17 34.6908C1588.74 29.3908 1599.05 28.2608 1607.58 31.8208C1601.24 37.4908 1591.64 39.2308 1583.71 36.1408L1581.17 34.7008L1581.17 34.6908Z" fill="#108C3D"/>
<path d="M1575.73 33.09C1575.73 33.09 1576.98 44.99 1585.75 50C1585.75 50 1585.75 39.98 1575.73 33.09Z" fill="#108C3D"/>
<path d="M1623.32 56.2606C1623.32 54.5306 1624.72 53.1306 1626.45 53.1306C1628.18 53.1306 1629.58 54.5306 1629.58 56.2606C1629.58 57.9906 1628.18 59.3906 1626.45 59.3906C1624.72 59.3906 1623.32 57.9906 1623.32 56.2606Z" fill="#108C3D"/>
<path d="M1613.92 49.9911C1613.92 48.2611 1615.32 46.8611 1617.05 46.8611C1618.78 46.8611 1620.18 48.2611 1620.18 49.9911C1620.18 51.7211 1618.78 53.1211 1617.05 53.1211C1615.32 53.1211 1613.92 51.7211 1613.92 49.9911Z" fill="#108C3D"/>
<path d="M1633.34 31.8407C1633.34 30.1107 1634.74 28.7107 1636.47 28.7107C1638.2 28.7107 1639.6 30.1107 1639.6 31.8407C1639.6 33.5707 1638.2 34.9707 1636.47 34.9707C1634.74 34.9707 1633.34 33.5707 1633.34 31.8407Z" fill="#108C3D"/>
<path d="M1612.67 31.8407C1612.67 30.1107 1614.07 28.7107 1615.8 28.7107C1617.53 28.7107 1618.93 30.1107 1618.93 31.8407C1618.93 33.5707 1617.53 34.9707 1615.8 34.9707C1614.07 34.9707 1612.67 33.5707 1612.67 31.8407Z" fill="#108C3D"/>
<path d="M1633.96 50.62C1633.96 48.89 1635.36 47.49 1637.09 47.49C1638.82 47.49 1640.22 48.89 1640.22 50.62C1640.22 52.35 1638.82 53.75 1637.09 53.75C1635.36 53.75 1633.96 52.35 1633.96 50.62Z" fill="#108C3D"/>
<path d="M1466.79 39.3569L1476.52 49.0938L1486.26 39.3569L1476.52 29.62L1466.79 39.3569Z" fill="#108C3D"/>
<path d="M1536.96 34.5393C1535.7 37.3393 1536.33 40.5093 1538.61 42.6193C1540.89 44.7293 1544.17 45.0093 1546.88 43.5393C1549.59 42.0693 1551.44 38.8493 1551.23 35.6893C1551.02 32.5293 1549.24 29.6893 1546.66 27.9093C1540.69 23.7993 1533.04 26.4193 1527.6 30.0693C1521.83 33.9393 1516.98 39.1293 1510.75 42.3093C1505.47 44.9993 1497.44 45.9993 1493.47 40.4893C1492.75 39.4893 1491.47 38.9993 1490.33 39.6693C1489.34 40.2493 1488.78 41.7993 1489.51 42.8093C1492.64 47.1593 1497.88 49.3393 1503.2 49.0993C1509.15 48.8293 1514.55 45.8493 1519.21 42.3393C1523.87 38.8293 1528.31 34.3993 1533.73 31.8293C1537.81 29.8893 1544.86 29.4293 1546.47 34.8893C1547.08 36.9693 1545.93 39.7393 1543.5 39.9393C1542.08 40.0593 1540.28 38.2893 1540.92 36.8593C1541.43 35.7293 1541.24 34.3993 1540.1 33.7193C1539.12 33.1493 1537.47 33.4093 1536.96 34.5393Z" fill="#108C3D"/>
<path d="M1515.57 43.3314C1512.31 52.2414 1502.9 58.5014 1493.42 58.0514C1497.9 51.1414 1505.61 46.4114 1513.8 45.5514L1515.57 43.3314Z" fill="#108C3D"/>
<path d="M1523.33 34.6908C1515.76 29.3908 1505.45 28.2608 1496.92 31.8208C1503.26 37.4908 1512.86 39.2308 1520.79 36.1408L1523.33 34.7008L1523.33 34.6908Z" fill="#108C3D"/>
<path d="M1528.77 33.09C1528.77 33.09 1527.52 44.99 1518.75 50C1518.75 50 1518.75 39.98 1528.77 33.09Z" fill="#108C3D"/>
<path d="M1413.94 36.8506C1414.5 38.1006 1413.05 39.8006 1411.78 39.9106C1409.88 40.0906 1408.31 38.1606 1408.19 36.4106C1408.04 34.2106 1409.63 32.2205 1411.5 31.2606C1413.89 30.0406 1416.75 30.2606 1419.23 31.0605C1424.79 32.8505 1429.26 37.3205 1433.75 40.8605C1438.24 44.4005 1443.55 47.9905 1449.54 48.8705C1455.53 49.7505 1461.72 47.8205 1465.34 42.8005C1466.06 41.7905 1465.51 40.2505 1464.52 39.6605C1463.37 38.9805 1462.11 39.4705 1461.38 40.4805C1457.96 45.2305 1451.19 45.1405 1446.27 43.2805C1439.85 40.8505 1434.87 35.6705 1429.46 31.6305C1424.05 27.5905 1417.17 24.0405 1410.46 26.7406C1404.49 29.1306 1400.99 37.0705 1406.11 42.1405C1408.52 44.5205 1412.38 45.3305 1415.29 43.3705C1418.2 41.4105 1419.34 37.7605 1417.89 34.5405C1417.38 33.4105 1415.74 33.1405 1414.75 33.7205C1413.59 34.4005 1413.42 35.7205 1413.93 36.8605L1413.94 36.8506Z" fill="#108C3D"/>
<path d="M1439.29 43.3314C1442.55 52.2414 1451.96 58.5014 1461.44 58.0514C1456.96 51.1414 1449.25 46.4114 1441.06 45.5514L1439.29 43.3314Z" fill="#108C3D"/>
<path d="M1431.53 34.6908C1439.1 29.3908 1449.41 28.2608 1457.94 31.8208C1451.6 37.4908 1442 39.2308 1434.07 36.1408L1431.53 34.7008L1431.53 34.6908Z" fill="#108C3D"/>
<path d="M1426.08 33.09C1426.08 33.09 1427.33 44.99 1436.1 50C1436.1 50 1436.1 39.98 1426.08 33.09Z" fill="#108C3D"/>
<path d="M1476.8 53.1306C1475.07 53.1306 1473.67 54.532 1473.67 56.2606C1473.67 57.9893 1475.07 59.3906 1476.8 59.3906C1478.53 59.3906 1479.93 57.9893 1479.93 56.2606C1479.93 54.532 1478.53 53.1306 1476.8 53.1306Z" fill="#108C3D"/>
<path d="M1464.28 49.9911C1464.28 48.2611 1465.68 46.8611 1467.41 46.8611C1469.14 46.8611 1470.54 48.2611 1470.54 49.9911C1470.54 51.7211 1469.14 53.1211 1467.41 53.1211C1465.68 53.1211 1464.28 51.7211 1464.28 49.9911Z" fill="#108C3D"/>
<path d="M1483.69 31.8407C1483.69 30.1107 1485.09 28.7107 1486.82 28.7107C1488.55 28.7107 1489.95 30.1107 1489.95 31.8407C1489.95 33.5707 1488.55 34.9707 1486.82 34.9707C1485.09 34.9707 1483.69 33.5707 1483.69 31.8407Z" fill="#108C3D"/>
<path d="M1463.03 31.8407C1463.03 30.1107 1464.43 28.7107 1466.16 28.7107C1467.89 28.7107 1469.29 30.1107 1469.29 31.8407C1469.29 33.5707 1467.89 34.9707 1466.16 34.9707C1464.43 34.9707 1463.03 33.5707 1463.03 31.8407Z" fill="#108C3D"/>
<path d="M1487.45 47.49C1485.72 47.49 1484.32 48.8913 1484.32 50.62C1484.32 52.3487 1485.72 53.75 1487.45 53.75C1489.18 53.75 1490.58 52.3487 1490.58 50.62C1490.58 48.8913 1489.18 47.49 1487.45 47.49Z" fill="#108C3D"/>
</svg>
