<svg xmlns="http://www.w3.org/2000/svg" width="56" height="49" viewBox="0 0 56 49" fill="none">
  <path d="M28 48.3281C27.6133 48.327 27.2378 48.2042 26.9323 47.9789C17.2008 40.7947 10.4972 34.6083 5.80643 28.505C-0.179534 20.7055 -1.54475 13.5047 1.74578 7.10207C4.09115 2.52878 10.8297 -1.21299 18.706 0.965554C22.4613 1.99619 25.7377 4.20641 28 7.23511C30.2623 4.20641 33.5387 1.99619 37.294 0.965554C45.1528 -1.17973 51.9088 2.52878 54.2542 7.10207C57.5448 13.5047 56.1795 20.7055 50.1936 28.505C45.5028 34.6083 38.7992 40.7947 29.0677 47.9789C28.7622 48.2042 28.3867 48.327 28 48.3281ZM14.2253 3.67626C12.3512 3.60696 10.4926 4.02391 8.84902 4.88236C7.20546 5.74081 5.83899 7.00834 4.89628 8.54889C2.18335 13.8373 3.40854 19.7243 8.64188 26.526C14.2035 33.342 20.7161 39.4067 28 44.5531C35.2828 39.4119 41.7953 33.3528 47.3581 26.5427C52.609 19.7243 53.8167 13.8373 51.1037 8.56552C49.3534 5.23949 44.1026 2.5953 38.2566 4.15854C36.3822 4.68488 34.6444 5.57828 33.1553 6.78123C31.6661 7.98418 30.4586 9.47004 29.6103 11.1432C29.4784 11.4482 29.2541 11.7091 28.9658 11.8927C28.6775 12.0763 28.3383 12.1743 27.9913 12.1743C27.6442 12.1743 27.305 12.0763 27.0167 11.8927C26.7284 11.7091 26.5041 11.4482 26.3722 11.1432C25.5303 9.46585 24.3248 7.97653 22.8347 6.77282C21.3446 5.56912 19.6036 4.67823 17.7258 4.15854C16.5881 3.84456 15.41 3.68225 14.2253 3.67626Z" fill="#108C3D" />
</svg>