<svg width="369" height="94" viewBox="0 0 369 94" fill="none" xmlns="http://www.w3.org/2000/svg">
<mask id="mask0_1_6483" style="mask-type:luminance" maskUnits="userSpaceOnUse" x="14" y="16" width="46" height="58">
<path d="M37.2727 40.0365C35.6155 39.3747 34.139 38.4121 32.9036 37.2089C31.638 36.0057 30.6738 34.5619 29.9807 32.9376C29.2877 31.3133 28.9261 29.5385 28.9261 27.6134C28.9261 26.1997 29.2576 24.9965 29.8903 24.0038C30.5231 23.0112 31.3668 22.199 32.3913 21.5974C33.4158 20.9958 34.591 20.5747 35.9469 20.304C37.3029 20.0633 38.6588 19.9129 40.0751 19.9129H48.1505V41.0291H42.7568C40.7681 41.0291 38.9602 40.6982 37.2727 40.0365ZM40.527 16.0928C37.4535 16.0928 34.6211 16.4537 32.0297 17.1456C29.4384 17.8374 27.1784 18.8301 25.3102 20.0633C23.4119 21.2966 21.9354 22.7705 20.8808 24.4851C19.8262 26.1696 19.2838 28.0646 19.2838 30.1101C19.2838 31.7645 19.6152 33.3286 20.3083 34.7725C20.9712 36.2163 21.9354 37.4797 23.1407 38.5625C24.346 39.6454 25.8225 40.5478 27.5099 41.2998C29.1973 42.0217 31.0655 42.5331 33.0241 42.7737C30.7943 43.7965 29.0466 45.4509 27.8413 47.767L14.4023 73.6659H25.943L37.6645 49.9629C38.3575 48.4889 39.3217 47.2857 40.4969 46.3232C41.6721 45.3606 43.2389 44.8793 45.1674 44.8793H48.1505V73.6659H57.7627V19.943H59.6912V16.1229H40.5572L40.527 16.0928Z" fill="white"/>
</mask>
<g mask="url(#mask0_1_6483)">
<path d="M15.3318 9.75042L6.32031 72.4873L58.7566 79.9931L67.768 17.2562L15.3318 9.75042Z" fill="url(#paint0_linear_1_6483)"/>
</g>
<mask id="mask1_1_6483" style="mask-type:luminance" maskUnits="userSpaceOnUse" x="65" y="34" width="33" height="41">
<path d="M76.4771 35.795C74.2473 36.8478 72.2887 38.2917 70.6615 40.1566C69.0344 42.0216 67.7387 44.1573 66.7745 46.6238C65.8102 49.0904 65.3281 51.7073 65.3281 54.4446C65.3281 57.1819 65.8102 59.8891 66.7745 62.2955C67.7387 64.732 69.0344 66.8677 70.6615 68.7326C72.2887 70.5976 74.2473 72.0414 76.4771 73.0942C78.7069 74.147 81.0873 74.6885 83.5883 74.6885C86.5413 74.6885 89.0422 74.0869 91.0912 72.8536C93.1402 71.6504 95.129 69.6952 97.0574 66.988L96.0028 65.3637C94.8578 66.9579 93.5319 68.3115 92.0555 69.3944C90.579 70.4773 89.0121 71.0187 87.3548 71.0187C85.3661 71.0187 83.4678 70.4171 81.6297 69.1838C79.7916 67.9806 78.1946 66.3262 76.7784 64.2507C75.3622 62.1752 74.2172 59.7989 73.3734 57.0917C72.4996 54.4145 72.0778 51.587 72.0778 48.6392C72.0778 45.6913 72.8009 42.9841 74.2473 40.9086C75.6936 38.8331 77.6221 37.7803 80.0628 37.7803C81.7201 37.7803 83.3171 38.2917 84.8237 39.3745C86.3303 40.4273 87.7465 41.8712 89.1025 43.7361L95.4604 40.0965C93.9839 38.5022 92.3568 37.1185 90.6091 35.9153C88.8313 34.7422 86.5111 34.1406 83.6486 34.1406C81.1476 34.1406 78.7671 34.6821 76.5373 35.7349" fill="white"/>
</mask>
<g mask="url(#mask1_1_6483)">
<path d="M65.979 29.7566L59.6406 73.8838L96.4176 79.1481L102.756 35.0208L65.979 29.7566Z" fill="url(#paint1_linear_1_6483)"/>
</g>
<mask id="mask2_1_6483" style="mask-type:luminance" maskUnits="userSpaceOnUse" x="99" y="35" width="33" height="39">
<path d="M124.236 35.2842V51.5875H106.94V35.2842H99.2559V73.6663H106.94V54.4752H124.236V73.6663H131.949V35.2842H124.236Z" fill="white"/>
</mask>
<g mask="url(#mask2_1_6483)">
<path d="M99.9237 30.6793L93.8633 72.8711L131.267 78.225L137.327 36.0332L99.9237 30.6793Z" fill="url(#paint2_linear_1_6483)"/>
</g>
<mask id="mask3_1_6483" style="mask-type:luminance" maskUnits="userSpaceOnUse" x="136" y="34" width="38" height="41">
<path d="M152.921 69.1543C151.083 67.891 149.486 66.2065 148.13 64.161C146.744 62.1156 145.629 59.7694 144.755 57.1524C143.882 54.5354 143.46 51.9185 143.46 49.3015C143.46 46.0529 144.153 43.3156 145.539 41.1498C146.925 38.9841 148.884 37.9012 151.445 37.9012C153.373 37.9012 155.241 38.563 157.08 39.8564C158.918 41.1799 160.515 42.8644 161.931 44.9399C163.347 47.0154 164.462 49.3617 165.306 51.9486C166.149 54.5354 166.541 57.1223 166.541 59.6791C166.541 62.9278 165.848 65.665 164.462 67.8308C163.076 69.9966 161.117 71.0794 158.556 71.0794C156.628 71.0794 154.759 70.4478 152.921 69.1543ZM147.889 35.8257C145.629 36.8785 143.701 38.3223 142.074 40.1873C140.447 42.0522 139.151 44.1879 138.187 46.6545C137.222 49.121 136.74 51.738 136.74 54.4753C136.74 57.2126 137.222 59.9198 138.187 62.3262C139.151 64.7626 140.447 66.8983 142.074 68.7633C143.701 70.6282 145.629 72.0721 147.889 73.1249C150.119 74.1777 152.499 74.7191 155 74.7191C157.501 74.7191 159.882 74.2078 162.112 73.1249C164.341 72.0721 166.3 70.6282 167.927 68.7633C169.554 66.8983 170.85 64.7626 171.814 62.3262C172.778 59.8897 173.261 57.2727 173.261 54.4753C173.261 51.6778 172.778 49.121 171.814 46.6545C170.85 44.1879 169.554 42.0522 167.927 40.1873C166.3 38.3223 164.372 36.8785 162.112 35.8257C159.882 34.7729 157.501 34.2314 155 34.2314C152.499 34.2314 150.119 34.7729 147.889 35.8257Z" fill="white"/>
</mask>
<g mask="url(#mask3_1_6483)">
<path d="M137.481 29.1162L131.049 73.8984L172.538 79.8373L178.971 35.055L137.481 29.1162Z" fill="url(#paint3_linear_1_6483)"/>
</g>
<mask id="mask4_1_6483" style="mask-type:luminance" maskUnits="userSpaceOnUse" x="173" y="35" width="37" height="39">
<path d="M185.765 35.2842L186.82 38.1719L173.953 73.6663H179.708C179.949 71.3501 180.341 69.0339 180.823 66.7178C181.305 64.4016 181.878 61.9351 182.541 59.3783C183.204 56.8215 184.017 54.1443 184.982 51.3168C185.946 48.5194 187.061 45.4211 188.356 42.1123L200.379 73.6663H209.027L194.142 35.2842H185.795H185.765Z" fill="white"/>
</mask>
<g mask="url(#mask4_1_6483)">
<path d="M174.635 30.3791L168.527 72.8984L208.287 78.5897L214.394 36.0703L174.635 30.3791Z" fill="url(#paint4_linear_1_6483)"/>
</g>
<mask id="mask5_1_6483" style="mask-type:luminance" maskUnits="userSpaceOnUse" x="212" y="35" width="34" height="39">
<path d="M237.443 35.2842V42.9546L220.147 53.9939V35.2842H212.463V73.6663H220.147V57.3328L237.443 46.3235V73.6663H245.156V35.2842H237.443Z" fill="white"/>
</mask>
<g mask="url(#mask5_1_6483)">
<path d="M213.139 30.6803L207.078 72.8721L244.481 78.226L250.542 36.0342L213.139 30.6803Z" fill="url(#paint5_linear_1_6483)"/>
</g>
<mask id="mask6_1_6483" style="mask-type:luminance" maskUnits="userSpaceOnUse" x="252" y="35" width="34" height="39">
<path d="M276.464 35.2842C275.199 35.2842 274.084 35.6151 273.21 36.2467C272.306 36.8784 271.583 37.7507 271.01 38.8336L263.809 51.5875H260.072V35.2842H252.389V73.6663H260.072V54.4752H263.236C264.321 54.4752 265.376 54.8362 266.37 55.5882C267.364 56.3101 268.057 57.0621 268.449 57.8442L276.525 73.6663H285.474L275.952 56.4003C275.048 54.8663 273.873 53.6931 272.457 52.8509C271.01 52.0087 269.534 51.6176 267.997 51.6176H266.852L271.673 42.6839C272.246 41.601 273.24 41.0595 274.656 41.0595H279.086V35.3143H276.585L276.464 35.2842Z" fill="white"/>
</mask>
<g mask="url(#mask6_1_6483)">
<path d="M253.034 30.6392L246.965 72.8906L284.756 78.3001L290.825 36.0487L253.034 30.6392Z" fill="url(#paint6_linear_1_6483)"/>
</g>
<mask id="mask7_1_6483" style="mask-type:luminance" maskUnits="userSpaceOnUse" x="284" y="34" width="36" height="41">
<path d="M293.397 68.1916C291.921 66.9884 291.198 65.2437 291.198 63.0178C291.198 61.1529 291.529 59.5887 292.192 58.3253C292.855 57.062 293.699 55.8588 294.753 54.7157C295.778 53.6028 296.923 52.5199 298.158 51.4671C299.394 50.4143 300.599 49.181 301.774 47.7673L308.403 67.0485C306.535 68.2517 304.908 69.0639 303.522 69.4549C302.106 69.846 300.509 70.0265 298.701 70.0265C296.652 70.0265 294.874 69.4249 293.428 68.1916M291.68 37.9612L292.343 40.0668L298.58 39.1042L300.689 44.8495C299.544 46.5039 298.038 48.0981 296.23 49.6021C294.392 51.1061 292.614 52.6402 290.896 54.2044C289.179 55.7685 287.702 57.3929 286.467 59.1074C285.262 60.7919 284.629 62.717 284.629 64.8226C284.629 68.1615 285.623 70.6281 287.672 72.2524C289.691 73.8767 292.102 74.6889 294.934 74.6889C297.767 74.6889 300.057 74.2076 302.226 73.245C304.396 72.2825 306.746 70.989 309.247 69.3045L310.693 73.6361H319.04L305.3 34.2012L291.65 37.9311L291.68 37.9612Z" fill="white"/>
</mask>
<g mask="url(#mask7_1_6483)">
<path d="M285.357 29.4246L278.967 73.9092L318.369 79.5492L324.758 35.0646L285.357 29.4246Z" fill="url(#paint7_linear_1_6483)"/>
</g>
<mask id="mask8_1_6483" style="mask-type:luminance" maskUnits="userSpaceOnUse" x="316" y="35" width="35" height="39">
<path d="M330.371 49.1808C328.774 47.5865 327.96 45.6614 327.96 43.4355C327.96 41.5705 328.593 40.247 329.829 39.4048C331.064 38.5625 332.631 38.1414 334.499 38.1414H340.556V51.5872H336.126C333.896 51.5872 331.968 50.775 330.371 49.1808ZM348.239 35.2838H335.282C333.294 35.2838 331.456 35.5244 329.768 35.9456C328.081 36.3968 326.604 37.0284 325.339 37.8707C324.073 38.7129 323.109 39.7056 322.416 40.8787C321.723 42.0518 321.361 43.4054 321.361 44.8492C321.361 46.7744 322.145 48.4889 323.712 50.023C325.279 51.5571 327.267 52.5497 329.708 53.0009C328.864 53.392 328.232 53.8432 327.78 54.3846C327.328 54.926 326.876 55.5878 326.424 56.3398L316.992 73.6057H325.821L333.896 57.7836C334.288 57.0016 334.981 56.2796 335.976 55.5276C336.97 54.8057 338.025 54.4147 339.109 54.4147H340.556V73.6057H348.239V38.1113H350.168V35.2236H348.239V35.2838Z" fill="white"/>
</mask>
<g mask="url(#mask8_1_6483)">
<path d="M317.723 30.6266L311.654 72.8779L349.535 78.3002L355.604 36.0488L317.723 30.6266Z" fill="url(#paint8_linear_1_6483)"/>
</g>
<defs>
<linearGradient id="paint0_linear_1_6483" x1="8.73137" y1="38.6038" x2="323.625" y2="83.8347" gradientUnits="userSpaceOnUse">
<stop stop-color="#088837"/>
<stop offset="0.5" stop-color="#5AB576"/>
<stop offset="1" stop-color="#088837"/>
</linearGradient>
<linearGradient id="paint1_linear_1_6483" x1="8.86103" y1="40.9254" x2="323.755" y2="86.1564" gradientUnits="userSpaceOnUse">
<stop stop-color="#088837"/>
<stop offset="0.5" stop-color="#5AB576"/>
<stop offset="1" stop-color="#088837"/>
</linearGradient>
<linearGradient id="paint2_linear_1_6483" x1="9.44636" y1="36.5261" x2="324.34" y2="81.7571" gradientUnits="userSpaceOnUse">
<stop stop-color="#088837"/>
<stop offset="0.5" stop-color="#5AB576"/>
<stop offset="1" stop-color="#088837"/>
</linearGradient>
<linearGradient id="paint3_linear_1_6483" x1="9.29263" y1="31.9655" x2="324.186" y2="77.1965" gradientUnits="userSpaceOnUse">
<stop stop-color="#088837"/>
<stop offset="0.5" stop-color="#5AB576"/>
<stop offset="1" stop-color="#088837"/>
</linearGradient>
<linearGradient id="paint4_linear_1_6483" x1="10.5047" y1="27.233" x2="325.398" y2="72.4639" gradientUnits="userSpaceOnUse">
<stop stop-color="#088837"/>
<stop offset="0.5" stop-color="#5AB576"/>
<stop offset="1" stop-color="#088837"/>
</linearGradient>
<linearGradient id="paint5_linear_1_6483" x1="10.4931" y1="21.8691" x2="325.387" y2="67.1" gradientUnits="userSpaceOnUse">
<stop stop-color="#088837"/>
<stop offset="0.5" stop-color="#5AB576"/>
<stop offset="1" stop-color="#088837"/>
</linearGradient>
<linearGradient id="paint6_linear_1_6483" x1="11.532" y1="16.418" x2="326.426" y2="61.649" gradientUnits="userSpaceOnUse">
<stop stop-color="#088837"/>
<stop offset="0.5" stop-color="#5AB576"/>
<stop offset="1" stop-color="#088837"/>
</linearGradient>
<linearGradient id="paint7_linear_1_6483" x1="13.1028" y1="10.8016" x2="327.996" y2="56.0326" gradientUnits="userSpaceOnUse">
<stop stop-color="#088837"/>
<stop offset="0.5" stop-color="#5AB576"/>
<stop offset="1" stop-color="#088837"/>
</linearGradient>
<linearGradient id="paint8_linear_1_6483" x1="12.8644" y1="6.94135" x2="327.758" y2="52.1723" gradientUnits="userSpaceOnUse">
<stop stop-color="#088837"/>
<stop offset="0.5" stop-color="#5AB576"/>
<stop offset="1" stop-color="#088837"/>
</linearGradient>
</defs>
</svg>
